<?xml version="1.0" encoding="UTF-8"?>
<svg version="1.1" xmlns="http://www.w3.org/2000/svg" width="500" height="500">
<path d="M0 0 C1.32 0.66 2.64 1.32 4 2 C4 4.64 4 7.28 4 10 C4.53109375 9.73445312 5.0621875 9.46890625 5.609375 9.1953125 C9.07291667 7.46354167 12.53645833 5.73177083 16 4 C16.59732819 6.76264289 17 9.16032769 17 12 C18.093125 11.979375 19.18625 11.95875 20.3125 11.9375 C24 12 24 12 27 13 C27 13.66 27 14.32 27 15 C25.03277992 16.38123963 23.03131672 17.71488126 21 19 C20.505 19.495 20.505 19.495 20 20 C25.38191985 22.10870294 25.38191985 22.10870294 31 22 C33.23084477 19.11211359 33.23084477 19.11211359 35 16 C40.00744161 13.49627919 47.29094949 14.44067438 52.4375 16.125 C59.06002615 20.97075084 61.40978865 26.76916887 64 34.3125 C64.34683838 35.28944824 64.69367676 36.26639648 65.05102539 37.27294922 C67.29080894 43.66889747 69.21321767 50.10776392 70.98510742 56.64550781 C72.92856414 63.43990386 75.90411522 69.73822745 79.05444336 76.05126953 C81.59096348 81.31128477 82.74458555 85.14043544 82 91 C77.12477552 94.25014965 71.69440806 93.70733551 66 93 C62.3798132 90.44457402 60.83020382 87.94197747 59 84 C55.51966874 82.25983437 51.58985267 82.48532729 47.75 82.25 C46.90308594 82.18167969 46.05617188 82.11335938 45.18359375 82.04296875 C39.96256483 81.7262967 36.48414531 81.95816362 32 85 C30.42953343 86.70090768 30.42953343 86.70090768 29.25 88.5625 C26.16627883 92.382753 23.25831252 93.25070789 18.4765625 93.9296875 C14.87226756 94.03201764 12.33789324 93.3493611 9 92 C8 91 8 91 7.76953125 87.921875 C8.02099815 83.6426755 9.10466328 80.17744351 10.6875 76.25 C10.95933105 75.5489917 11.23116211 74.8479834 11.51123047 74.12573242 C13.08394546 70.12141459 14.79029206 66.20482433 16.625 62.3125 C19.98963216 55.13966681 22.02099904 47.55430969 24.125 39.9375 C25 37 25 37 26.125 34.8125 C27.28983271 32.73507479 27.28983271 32.73507479 27 29 C22.67435795 27.41744803 18.571279 26.54855348 14 26 C14.495 26.7425 14.99 27.485 15.5 28.25 C17 31 17 31 17 35 C12.86117858 34.39134979 9.69990949 32.91144908 6 31 C6.05220703 32.95292969 6.05220703 32.95292969 6.10546875 34.9453125 C6.13361901 36.67186204 6.16091784 38.39842561 6.1875 40.125 C6.21263672 40.9809375 6.23777344 41.836875 6.26367188 42.71875 C6.33909397 49.25533155 5.20630328 53.40434908 0.875 58.5 C-8.5027553 66.65456983 -16.75592126 69.17360539 -29 69.625 C-29.87011719 69.66367188 -30.74023438 69.70234375 -31.63671875 69.7421875 C-33.75750486 69.83540887 -35.87872185 69.91874136 -38 70 C-38.04898437 71.08539063 -38.09796875 72.17078125 -38.1484375 73.2890625 C-38.22351986 74.73439784 -38.29906528 76.17970919 -38.375 77.625 C-38.4059375 78.33785156 -38.436875 79.05070312 -38.46875 79.78515625 C-38.70898404 84.14940792 -39.25841814 87.92795608 -41 92 C-43.76552455 93.38276228 -46.29888948 93.4213646 -49.375 93.6875 C-51.08816406 93.84798828 -51.08816406 93.84798828 -52.8359375 94.01171875 C-56.02988414 93.99988932 -57.49824914 93.94771015 -60 92 C-62.5831748 87.30987816 -62.27234508 82.60842235 -62.23046875 77.40625 C-62.23001053 76.46430786 -62.22955231 75.52236572 -62.2290802 74.55187988 C-62.22606063 72.55133815 -62.21818315 70.55079872 -62.20581055 68.55029297 C-62.18789613 65.56599059 -62.18529888 62.58200606 -62.18554688 59.59765625 C-62.16945777 49.84381185 -62.02392676 40.09161055 -61.67578125 30.34375 C-61.65404343 29.47488159 -61.6323056 28.60601318 -61.60990906 27.71081543 C-61.41187944 23.07114898 -61.08803658 19.71352552 -58 16 C-55.19159864 15.06386621 -53.24533104 14.8258945 -50.32421875 14.71875 C-49.41349609 14.68136719 -48.50277344 14.64398438 -47.56445312 14.60546875 C-46.14036133 14.55326172 -46.14036133 14.55326172 -44.6875 14.5 C-39.0231753 14.28977764 -33.59454275 13.93629277 -28 13 C-25.36410042 12.93343688 -22.75851404 12.90432589 -20.125 12.9375 C-19.43664062 12.94201172 -18.74828125 12.94652344 -18.0390625 12.95117188 C-16.35933665 12.96283664 -14.67965625 12.98076729 -13 13 C-13.804375 12.113125 -14.60875 11.22625 -15.4375 10.3125 C-17.7039159 7.61712968 -18.68417366 5.57936522 -19 2 C-13.7174714 2.25768432 -11.28293983 4.11562535 -7.61328125 7.625 C-5.93403885 9.23015589 -5.93403885 9.23015589 -3 10 C-2.814375 8.081875 -2.814375 8.081875 -2.625 6.125 C-2.25 2.25 -2.25 2.25 0 0 Z M-39 32 C-39.02888514 35.14581423 -39.04675923 38.29159469 -39.0625 41.4375 C-39.07087891 42.33533203 -39.07925781 43.23316406 -39.08789062 44.15820312 C-39.09111328 45.01220703 -39.09433594 45.86621094 -39.09765625 46.74609375 C-39.10289307 47.53685303 -39.10812988 48.3276123 -39.11352539 49.14233398 C-39.20495909 51.01592689 -39.20495909 51.01592689 -38 52 C-35.58859279 52.15461551 -33.22549429 52.23170241 -30.8125 52.25 C-28.84216797 52.28867188 -28.84216797 52.28867188 -26.83203125 52.328125 C-22.80149852 51.98300293 -20.40950963 51.13159024 -17 49 C-15.39981917 45.79963835 -15.63835002 42.48088105 -16 39 C-17.08293867 35.57988728 -17.08293867 35.57988728 -19 33 C-22.9793888 31.6053398 -27.08610828 31.88968146 -31.25 31.9375 C-32.36761719 31.94426758 -32.36761719 31.94426758 -33.5078125 31.95117188 C-35.3385764 31.96290754 -37.16929873 31.9808415 -39 32 Z M45 43 C40.88295322 50.00353714 39.16992613 55.87444134 39 64 C40.39445749 64.19747219 41.79068152 64.38248587 43.1875 64.5625 C43.96480469 64.66691406 44.74210937 64.77132812 45.54296875 64.87890625 C48.19912494 65.00981379 50.42241629 64.6180707 53 64 C52.37942343 61.43635601 51.75370801 58.87415074 51.125 56.3125 C50.95097656 55.59126953 50.77695312 54.87003906 50.59765625 54.12695312 C49.64902134 50.27971155 48.59509159 46.64284431 47 43 C46.34 43 45.68 43 45 43 Z " fill="#FBF3DC" transform="translate(296,161)"/>
<path d="M0 0 C0.47751709 0.48927979 0.95503418 0.97855957 1.44702148 1.48266602 C6.31141207 6.23540733 19.50640385 4.32104066 26.22875977 4.50268555 C28.42933222 4.56227881 30.62968969 4.62735018 32.83007812 4.69335938 C39.62265602 4.89068598 46.40339172 5.05760322 53.19946289 4.91772461 C55 5 55 5 57 6 C57.484375 7.78515625 57.484375 7.78515625 57.75 10.0625 C57.84796875 10.79597656 57.9459375 11.52945313 58.046875 12.28515625 C57.91373772 19.99602394 55.62549493 24.25265764 50.3125 29.5 C49.22057242 30.62684717 48.12942274 31.75444867 47.0390625 32.8828125 C46.51344727 33.4180957 45.98783203 33.95337891 45.44628906 34.50488281 C43.61555074 36.39742864 41.89504643 38.37116698 40.1875 40.375 C38.0357178 42.87148518 35.80361136 45.20590072 33.4375 47.5 C30.46278885 50.42147247 27.97671141 53.52075593 25.5546875 56.91015625 C23.47748771 59.70237205 21.24236542 62.3386067 19 65 C26.23191461 65.57282492 33.41092612 66.05686181 40.66796875 65.9609375 C41.61518799 65.94869141 42.56240723 65.93644531 43.53833008 65.92382812 C45.41474486 65.89152905 47.29098464 65.8461627 49.16674805 65.78710938 C50.02695557 65.77228516 50.88716309 65.75746094 51.7734375 65.7421875 C52.54091309 65.7201123 53.30838867 65.69803711 54.09912109 65.67529297 C54.72641113 65.78244629 55.35370117 65.88959961 56 66 C58.15164703 69.22747055 58.27245079 70.20505639 58.25 73.9375 C58.25773437 75.21947266 58.25773437 75.21947266 58.265625 76.52734375 C57.98316223 79.15673987 57.41261365 80.77662569 56 83 C53.46179234 84.26910383 51.69228952 84.12701134 48.85107422 84.12939453 C47.77590546 84.13254669 46.70073669 84.13569885 45.59298706 84.13894653 C44.42534821 84.1369223 43.25770935 84.13489807 42.0546875 84.1328125 C40.85570831 84.13376923 39.65672913 84.13472595 38.42141724 84.13571167 C35.87762398 84.13639348 33.333829 84.13453914 30.79003906 84.13037109 C26.91206902 84.12505086 23.03421629 84.13030155 19.15625 84.13671875 C16.68489558 84.13605742 14.21354123 84.13477512 11.7421875 84.1328125 C10.0089473 84.13584885 10.0089473 84.13584885 8.24069214 84.13894653 C-7.75413526 84.09286381 -7.75413526 84.09286381 -11.00390625 81.2421875 C-12.82720376 77.13798057 -11.9810306 73.27157076 -11 69 C-8.09120357 63.298759 -3.27915332 58.72238012 1 54 C2.16991127 52.66951268 3.33672932 51.33629721 4.5 50 C6.93473293 47.20721811 9.39835079 44.44313934 11.875 41.6875 C19.72441751 33.39487365 19.72441751 33.39487365 26 24 C25.14245117 23.98018066 24.28490234 23.96036133 23.40136719 23.93994141 C20.21052358 23.86170479 17.0200526 23.77500657 13.82958984 23.68261719 C12.45044757 23.64440662 11.07120833 23.60953998 9.69189453 23.578125 C7.70583033 23.53230376 5.72008321 23.47333737 3.734375 23.4140625 C2.54038086 23.3826416 1.34638672 23.3512207 0.11621094 23.31884766 C-2.83009249 23.01738477 -4.56477679 22.64284099 -7 21 C-7.94140625 18.90625 -7.94140625 18.90625 -8.5625 16.5 C-9.57550129 12.51672931 -9.57550129 12.51672931 -13 10 C-12.875 6.6875 -12.875 6.6875 -12 3 C-8.10854137 0.19452982 -4.7502148 -0.63336197 0 0 Z " fill="#CDF6CF" transform="translate(90,171)"/>
<path d="M0 0 C1.22332031 -0.02835938 2.44664062 -0.05671875 3.70703125 -0.0859375 C7.86219328 0.46435332 9.3910292 1.27227297 12.1875 4.375 C14.27517569 10.01366702 14.42716266 15.0677232 14.3125 21.03515625 C14.30492676 21.94325546 14.29735352 22.85135468 14.28955078 23.78697205 C14.26525661 26.67068085 14.22800773 29.5539762 14.1875 32.4375 C14.1341683 36.2408754 14.09425428 40.04404623 14.0625 43.84765625 C14.04590332 44.71342789 14.02930664 45.57919952 14.01220703 46.47120667 C13.9744384 51.14665855 14.1802635 55.04477717 16.1875 59.375 C20.80775553 61.90513993 25.21824395 61.64287603 30.1875 60.375 C33.91600586 58.6139807 33.91600586 58.6139807 36.1875 55.375 C36.29038645 53.90084397 36.33335585 52.42227456 36.34521484 50.94458008 C36.36060806 49.56723442 36.36060806 49.56723442 36.37631226 48.1620636 C36.38361359 47.16627792 36.39091492 46.17049225 36.3984375 45.14453125 C36.42651662 43.04100798 36.45518115 40.93749247 36.484375 38.83398438 C36.52556627 35.51391909 36.56244831 32.19399681 36.58886719 28.8737793 C36.61656085 25.67205771 36.66244541 22.47099652 36.7109375 19.26953125 C36.71419037 18.28386673 36.71744324 17.29820221 36.72079468 16.28266907 C36.82200437 10.57662641 37.40467688 6.40188418 40.1875 1.375 C43.14138136 -0.10194068 45.83911882 0.16569203 49.125 0.125 C50.37152344 0.09921875 51.61804688 0.0734375 52.90234375 0.046875 C56.1875 0.375 56.1875 0.375 57.84912109 1.54589844 C62.83433899 8.35896894 60.27582542 23.22700302 60.05541992 31.59521484 C60.00007018 33.87211286 59.97151442 36.14840554 59.94335938 38.42578125 C59.70372479 50.27281114 58.6650314 61.97870258 49.8984375 70.80078125 C49.33382812 71.32027344 48.76921875 71.83976562 48.1875 72.375 C47.424375 73.1175 46.66125 73.86 45.875 74.625 C37.73012048 79.92864248 28.80985872 82.25798116 19.140625 80.96875 C8.19824778 78.63585739 -0.55774855 72.74962747 -6.8125 63.375 C-8.6522824 58.04682618 -9.15553447 53.25320166 -9.26171875 47.6875 C-9.28345657 46.86733398 -9.3051944 46.04716797 -9.32759094 45.20214844 C-9.37131179 43.47097139 -9.41055492 41.73967606 -9.44555664 40.00830078 C-9.49927565 37.41003493 -9.56977279 34.81263677 -9.64257812 32.21484375 C-10.17158127 11.2429858 -10.17158127 11.2429858 -8.8125 2.375 C-5.97255391 -0.46494609 -3.95852431 0.04145052 0 0 Z " fill="#CAF7CD" transform="translate(162.8125,176.625)"/>
<path d="M0 0 C1.32 0.66 2.64 1.32 4 2 C4 3.32 4 4.64 4 6 C4.8971875 5.505 4.8971875 5.505 5.8125 5 C8 4 8 4 11 4 C11.25394531 4.68707031 11.50789063 5.37414062 11.76953125 6.08203125 C12.11371094 6.98308594 12.45789063 7.88414062 12.8125 8.8125 C13.14894531 9.70582031 13.48539062 10.59914062 13.83203125 11.51953125 C14.96197319 13.91924072 16.01062293 15.28423353 18 17 C16.35 17.33 14.7 17.66 13 18 C13 19.65 13 21.3 13 23 C10.36 22.67 7.72 22.34 5 22 C5.495 22.99 5.495 22.99 6 24 C6.09868631 26.61518725 6.13896965 29.19784734 6.125 31.8125 C6.12886719 32.52470703 6.13273437 33.23691406 6.13671875 33.97070312 C6.12968433 37.77280929 5.914708 41.30487007 5 45 C4.34 45 3.68 45 3 45 C3 45.99 3 46.98 3 48 C2.34 48 1.68 48 1 48 C1 48.66 1 49.32 1 50 C-3.14453354 53.96570849 -7.13998008 56.706999 -13 57 C-13 57.66 -13 58.32 -13 59 C-16.77431151 61.49339232 -20.52882849 61.19408134 -24.875 61.0625 C-29.69850308 60.9416887 -34.24784932 61.03914195 -39 62 C-39.09087891 63.62808594 -39.09087891 63.62808594 -39.18359375 65.2890625 C-39.26806064 66.73438486 -39.35270551 68.17969682 -39.4375 69.625 C-39.47681641 70.33785156 -39.51613281 71.05070312 -39.55664062 71.78515625 C-39.59853516 72.48769531 -39.64042969 73.19023437 -39.68359375 73.9140625 C-39.72025146 74.5529541 -39.75690918 75.1918457 -39.79467773 75.85009766 C-40.05575873 78.58384235 -40.54853023 81.29118137 -41 84 C-46.28 84 -51.56 84 -57 84 C-58.7994808 80.4010384 -59.25125846 79.45885649 -59.23046875 75.765625 C-59.22942139 74.90042236 -59.22837402 74.03521973 -59.22729492 73.14379883 C-59.2141626 72.18884521 -59.20103027 71.2338916 -59.1875 70.25 C-59.17887939 69.24026123 -59.17025879 68.23052246 -59.16137695 67.19018555 C-59.12870045 64.18065768 -59.08312993 61.17157556 -59.03320312 58.16229248 C-58.99672606 55.78679069 -58.968636 53.41126989 -58.94140625 51.03564453 C-58.88825388 46.53388573 -58.8168761 42.03268802 -58.73452759 37.53137207 C-58.70324751 35.72293293 -58.67651334 33.91440928 -58.65438843 32.10583496 C-58.62099872 29.53491572 -58.56864113 26.96502367 -58.51171875 24.39453125 C-58.50531372 23.62146133 -58.49890869 22.84839142 -58.49230957 22.05189514 C-58.35743603 17.11647808 -57.5607008 13.5607008 -54 10 C-51.94217944 9.78307016 -49.87773787 9.62836107 -47.8125 9.5 C-45.92917969 9.37625 -45.92917969 9.37625 -44.0078125 9.25 C-41.9997391 9.12394144 -39.99157039 8.99947749 -37.98339844 8.875 C-36.05119618 8.75370432 -34.11933977 8.62693814 -32.1875 8.5 C-31.02605469 8.4278125 -29.86460937 8.355625 -28.66796875 8.28125 C-26.08176195 8.2914552 -26.08176195 8.2914552 -25 7 C-22.13311752 7.09096556 -19.29699485 7.23767988 -16.4375 7.4375 C-15.63119141 7.48970703 -14.82488281 7.54191406 -13.99414062 7.59570312 C-11.99578262 7.72577376 -9.99784614 7.86229056 -8 8 C-8 6.68 -8 5.36 -8 4 C-5.69 4 -3.38 4 -1 4 C-0.67 2.68 -0.34 1.36 0 0 Z M-38 25 C-38.02888514 28.14581423 -38.04675923 31.29159469 -38.0625 34.4375 C-38.07087891 35.33533203 -38.07925781 36.23316406 -38.08789062 37.15820312 C-38.09111328 38.01220703 -38.09433594 38.86621094 -38.09765625 39.74609375 C-38.10289307 40.53685303 -38.10812988 41.3276123 -38.11352539 42.14233398 C-38.20495909 44.01592689 -38.20495909 44.01592689 -37 45 C-34.58859279 45.15461551 -32.22549429 45.23170241 -29.8125 45.25 C-27.84216797 45.28867188 -27.84216797 45.28867188 -25.83203125 45.328125 C-21.80149852 44.98300293 -19.40950963 44.13159024 -16 42 C-14.39981917 38.79963835 -14.63835002 35.48088105 -15 32 C-16.08293867 28.57988728 -16.08293867 28.57988728 -18 26 C-21.9793888 24.6053398 -26.08610828 24.88968146 -30.25 24.9375 C-31.36761719 24.94426758 -31.36761719 24.94426758 -32.5078125 24.95117188 C-34.3385764 24.96290754 -36.16929873 24.9808415 -38 25 Z " fill="#CBF6CD" transform="translate(295,168)"/>
<path d="M0 0 C7.12118059 4.41513196 11.42827007 12.1424051 16 19 C16.99 19.33 17.98 19.66 19 20 C19.26296875 19.26523438 19.5259375 18.53046875 19.796875 17.7734375 C21.75034824 13.27030112 24.90804394 9.77476302 28 6 C28.556875 5.30648437 29.11375 4.61296875 29.6875 3.8984375 C33.61294896 -0.87098299 33.61294896 -0.87098299 37 -2 C42.0925857 -2.25045503 46.31462009 -2.28555118 51 0 C51.88671875 1.6640625 51.88671875 1.6640625 52 4 C50.89545354 6.37385952 49.76485056 8.42659859 48.375 10.625 C47.97982178 11.27162598 47.58464355 11.91825195 47.17749023 12.58447266 C44.79625403 16.4007945 42.25672106 20.06130316 39.57421875 23.671875 C38.9930127 24.45481934 38.41180664 25.23776367 37.81298828 26.04443359 C36.67157981 27.56408287 35.51557391 29.07290937 34.34326172 30.56884766 C27.42170726 39.71764532 27.67700576 49.07101689 27.52148438 60.1796875 C27.26919518 69.11441719 27.26919518 69.11441719 24 73 C20.53231824 75.36432847 18.58981269 76.01016918 14.375 75.9375 C10.70892833 74.91914676 9.32525292 73.95128255 7 71 C5.60848693 68.21697386 5.82038794 65.84563385 5.74609375 62.734375 C5.22551824 42.58479784 5.22551824 42.58479784 -4 25 C-5.22982769 23.25442204 -6.43061926 21.49103624 -7.63061523 19.72485352 C-8.7357534 18.11200469 -9.87643508 16.52367239 -11.01953125 14.9375 C-14.43718646 9.86831515 -16.44239632 6.19354848 -16 0 C-10.34877476 -2.67689616 -5.74270233 -1.93933882 0 0 Z " fill="#FBF1DA" transform="translate(402,178)"/>
<path d="M0 0 C1.22332031 -0.02835938 2.44664062 -0.05671875 3.70703125 -0.0859375 C7.86219328 0.46435332 9.3910292 1.27227297 12.1875 4.375 C14.27517569 10.01366702 14.42716266 15.0677232 14.3125 21.03515625 C14.30492676 21.94325546 14.29735352 22.85135468 14.28955078 23.78697205 C14.26525661 26.67068085 14.22800773 29.5539762 14.1875 32.4375 C14.1341683 36.2408754 14.09425428 40.04404623 14.0625 43.84765625 C14.04590332 44.71342789 14.02930664 45.57919952 14.01220703 46.47120667 C13.9744384 51.14665855 14.1802635 55.04477717 16.1875 59.375 C20.80775553 61.90513993 25.21824395 61.64287603 30.1875 60.375 C33.91600586 58.6139807 33.91600586 58.6139807 36.1875 55.375 C36.29038645 53.90084397 36.33335585 52.42227456 36.34521484 50.94458008 C36.36060806 49.56723442 36.36060806 49.56723442 36.37631226 48.1620636 C36.38361359 47.16627792 36.39091492 46.17049225 36.3984375 45.14453125 C36.42651662 43.04100798 36.45518115 40.93749247 36.484375 38.83398438 C36.52556627 35.51391909 36.56244831 32.19399681 36.58886719 28.8737793 C36.61656085 25.67205771 36.66244541 22.47099652 36.7109375 19.26953125 C36.71419037 18.28386673 36.71744324 17.29820221 36.72079468 16.28266907 C36.82200437 10.57662641 37.40467688 6.40188418 40.1875 1.375 C43.14138136 -0.10194068 45.83911882 0.16569203 49.125 0.125 C50.37152344 0.09921875 51.61804688 0.0734375 52.90234375 0.046875 C56.1875 0.375 56.1875 0.375 57.84912109 1.54589844 C62.83433899 8.35896894 60.27582542 23.22700302 60.05541992 31.59521484 C60.00007018 33.87211286 59.97151442 36.14840554 59.94335938 38.42578125 C59.70372479 50.27281114 58.6650314 61.97870258 49.8984375 70.80078125 C49.33382812 71.32027344 48.76921875 71.83976562 48.1875 72.375 C47.424375 73.1175 46.66125 73.86 45.875 74.625 C37.73012048 79.92864248 28.80985872 82.25798116 19.140625 80.96875 C8.19824778 78.63585739 -0.55774855 72.74962747 -6.8125 63.375 C-8.6522824 58.04682618 -9.15553447 53.25320166 -9.26171875 47.6875 C-9.28345657 46.86733398 -9.3051944 46.04716797 -9.32759094 45.20214844 C-9.37131179 43.47097139 -9.41055492 41.73967606 -9.44555664 40.00830078 C-9.49927565 37.41003493 -9.56977279 34.81263677 -9.64257812 32.21484375 C-10.17158127 11.2429858 -10.17158127 11.2429858 -8.8125 2.375 C-5.97255391 -0.46494609 -3.95852431 0.04145052 0 0 Z M-7.8125 3.375 C-7.92112754 4.81502309 -7.96152416 6.26028205 -7.97363281 7.7043457 C-7.98324036 8.62653397 -7.9928479 9.54872223 -8.00274658 10.49885559 C-8.00699646 11.50599106 -8.01124634 12.51312653 -8.015625 13.55078125 C-8.02132507 14.58631638 -8.02702515 15.6218515 -8.03289795 16.68876648 C-8.04237206 18.89219129 -8.04889144 21.09563043 -8.05273438 23.29907227 C-8.06234924 26.63519083 -8.09331137 29.97066926 -8.125 33.30664062 C-8.78977641 50.98563707 -8.78977641 50.98563707 -2.5 67.0625 C0.50276463 69.64627422 2.27375216 70.19296522 6.1875 70.375 C6.1875 71.035 6.1875 71.695 6.1875 72.375 C8.57804107 73.5537322 10.97395215 74.71802997 13.375 75.875 C14.04853516 76.20886719 14.72207031 76.54273438 15.41601562 76.88671875 C20.87830791 79.49796092 24.65925592 80.1324221 30.5 78.125 C38.8520336 75.51843731 38.8520336 75.51843731 44.6875 69.625 C44.8525 68.8825 45.0175 68.14 45.1875 67.375 C46.5075 67.375 47.8275 67.375 49.1875 67.375 C49.84239373 66.00429219 50.48594963 64.62816556 51.125 63.25 C51.48464844 62.48429687 51.84429687 61.71859375 52.21484375 60.9296875 C57.41218836 47.27883058 56.71992234 27.23920185 56.1875 12.6875 C56.14625 11.50800781 56.105 10.32851562 56.0625 9.11328125 C55.41469432 6.0948821 55.41469432 6.0948821 52.328125 4.5 C49.00249729 3.30873037 46.68883988 2.97712047 43.1875 3.375 C38.71140783 7.85109217 40.02511282 17.18339338 39.94140625 23.25 C39.90848418 24.91146393 39.87527227 26.57292213 39.84179688 28.234375 C39.79443881 30.80790546 39.74990235 33.38141004 39.71069336 35.95507812 C39.67064402 38.47027261 39.61921316 40.98504527 39.56640625 43.5 C39.5579921 44.25651855 39.54957794 45.01303711 39.54090881 45.79248047 C39.42296554 50.97356244 39.21681501 56.55129545 37.1875 61.375 C30.43648943 66.25837549 20.94285169 64.22308194 13.1875 63.375 C13.1875 61.065 13.1875 58.755 13.1875 56.375 C11.7025 55.88 11.7025 55.88 10.1875 55.375 C10.07059661 49.73765867 10.24051131 44.18448454 10.6875 38.5625 C11.58563701 26.50924103 11.03241576 15.28459011 9.1875 3.375 C5.79357349 2.24369116 3.13415128 2.2420806 -0.4375 2.25 C-2.18933594 2.24613281 -2.18933594 2.24613281 -3.9765625 2.2421875 C-6.71335946 2.05144156 -6.71335946 2.05144156 -7.8125 3.375 Z " fill="#F2FDF1" transform="translate(162.8125,176.625)"/>
<path d="M0 0 C1.32 0.66 2.64 1.32 4 2 C4 4.64 4 7.28 4 10 C4.53109375 9.73445312 5.0621875 9.46890625 5.609375 9.1953125 C9.07291667 7.46354167 12.53645833 5.73177083 16 4 C16.59732819 6.76264289 17 9.16032769 17 12 C18.093125 11.979375 19.18625 11.95875 20.3125 11.9375 C24 12 24 12 27 13 C27 13.66 27 14.32 27 15 C25.03277992 16.38123963 23.03131672 17.71488126 21 19 C20.505 19.495 20.505 19.495 20 20 C25.38191985 22.10870294 25.38191985 22.10870294 31 22 C31.9590625 20.5459375 31.9590625 20.5459375 32.9375 19.0625 C35 16 35 16 38.25 15.125 C39.1575 15.08375 40.065 15.0425 41 15 C39.0425845 17.51667707 37.13525506 19.8724738 34.8125 22.0625 C32.87448627 24.13416985 32.5596479 25.29503514 32 28 C31.34 28.33 30.68 28.66 30 29 C29.01 30.485 29.01 30.485 28 32 C27.505 30.515 27.505 30.515 27 29 C22.7725266 27.18822569 18.54680927 26.54561711 14 26 C14.495 26.7425 14.99 27.485 15.5 28.25 C17 31 17 31 17 35 C12.86117858 34.39134979 9.69990949 32.91144908 6 31 C6.05220703 32.95292969 6.05220703 32.95292969 6.10546875 34.9453125 C6.13361901 36.67186204 6.16091784 38.39842561 6.1875 40.125 C6.21263672 40.9809375 6.23777344 41.836875 6.26367188 42.71875 C6.33909397 49.25533155 5.20630328 53.40434908 0.875 58.5 C-4.95959253 63.57355872 -10.08965114 67.66338941 -18 68 C-16.02 67.01 -16.02 67.01 -14 66 C-14 65.34 -14 64.68 -14 64 C-12.7625 63.5875 -11.525 63.175 -10.25 62.75 C-6.65694414 61.42323556 -4.57891175 59.87647849 -2 57 C-1.34 57 -0.68 57 0 57 C0 56.34 0 55.68 0 55 C0.66 55 1.32 55 2 55 C2 54.01 2 53.02 2 52 C2.66 52 3.32 52 4 52 C4 44.41 4 36.82 4 29 C6.64 29.33 9.28 29.66 12 30 C12 28.35 12 26.7 12 25 C13.32 24.34 14.64 23.68 16 23 C15.01 22.34 14.02 21.68 13 21 C12.05078125 18.6171875 12.05078125 18.6171875 11.3125 15.875 C11.06113281 14.96492187 10.80976563 14.05484375 10.55078125 13.1171875 C10.36902344 12.41851562 10.18726563 11.71984375 10 11 C9.401875 11.33 8.80375 11.66 8.1875 12 C6 13 6 13 3 13 C3 11.68 3 10.36 3 9 C2.01 8.67 1.02 8.34 0 8 C-0.66 9.32 -1.32 10.64 -2 12 C-4.31 11.67 -6.62 11.34 -9 11 C-9 12.32 -9 13.64 -9 15 C-10.21558594 14.98839844 -11.43117188 14.97679687 -12.68359375 14.96484375 C-14.26822764 14.95546722 -15.85286318 14.94636687 -17.4375 14.9375 C-18.23994141 14.92912109 -19.04238281 14.92074219 -19.86914062 14.91210938 C-21.91295221 14.9034857 -23.95683902 14.9477185 -26 15 C-26.33 15.33 -26.66 15.66 -27 16 C-29.03564438 16.16816029 -31.07629715 16.27635379 -33.1171875 16.359375 C-34.98697266 16.45605469 -34.98697266 16.45605469 -36.89453125 16.5546875 C-39.53966221 16.68447803 -42.1855793 16.7991629 -44.83203125 16.8984375 C-46.08113281 16.96804687 -47.33023438 17.03765625 -48.6171875 17.109375 C-49.76815918 17.16061523 -50.91913086 17.21185547 -52.10498047 17.26464844 C-55.10873204 17.74668613 -55.10873204 17.74668613 -56.86694336 20.03100586 C-58.31993626 23.83834192 -58.47842967 27.37346689 -58.51171875 31.39453125 C-58.52976059 32.21130844 -58.54780243 33.02808563 -58.56639099 33.86961365 C-58.62105253 36.51719681 -58.65483815 39.16456177 -58.6875 41.8125 C-58.71957374 43.62794702 -58.75261716 45.44337717 -58.78662109 47.25878906 C-58.87942383 52.50567206 -58.94321623 57.75262109 -59 63 C-59.01672779 64.38785851 -59.03348918 65.77571662 -59.05029297 67.16357422 C-59.08646498 70.52578477 -59.11131765 73.88762995 -59.125 77.25 C-59.12975342 78.20495361 -59.13450684 79.15990723 -59.1394043 80.14379883 C-59.137229 81.00900146 -59.13505371 81.8742041 -59.1328125 82.765625 C-59.13168457 83.49555664 -59.13055664 84.22548828 -59.12939453 84.97753906 C-59.0380448 87.35810101 -59.0380448 87.35810101 -58 91 C-52.72 91 -47.44 91 -42 91 C-41.67 83.74 -41.34 76.48 -41 69 C-33.41318123 66.83233749 -26.71202512 65.94345997 -19 68 C-19 68.33 -19 68.66 -19 69 C-25.27 69.33 -31.54 69.66 -38 70 C-38.24836926 74.99492756 -38.24836926 74.99492756 -38.47802734 79.99072266 C-38.71864928 84.27945489 -39.28923135 88.00000137 -41 92 C-43.76552455 93.38276228 -46.29888948 93.4213646 -49.375 93.6875 C-51.08816406 93.84798828 -51.08816406 93.84798828 -52.8359375 94.01171875 C-56.02988414 93.99988932 -57.49824914 93.94771015 -60 92 C-62.5831748 87.30987816 -62.27234508 82.60842235 -62.23046875 77.40625 C-62.23001053 76.46430786 -62.22955231 75.52236572 -62.2290802 74.55187988 C-62.22606063 72.55133815 -62.21818315 70.55079872 -62.20581055 68.55029297 C-62.18789613 65.56599059 -62.18529888 62.58200606 -62.18554688 59.59765625 C-62.16945777 49.84381185 -62.02392676 40.09161055 -61.67578125 30.34375 C-61.65404343 29.47488159 -61.6323056 28.60601318 -61.60990906 27.71081543 C-61.41187944 23.07114898 -61.08803658 19.71352552 -58 16 C-55.19159864 15.06386621 -53.24533104 14.8258945 -50.32421875 14.71875 C-49.41349609 14.68136719 -48.50277344 14.64398438 -47.56445312 14.60546875 C-46.14036133 14.55326172 -46.14036133 14.55326172 -44.6875 14.5 C-39.0231753 14.28977764 -33.59454275 13.93629277 -28 13 C-25.36410042 12.93343688 -22.75851404 12.90432589 -20.125 12.9375 C-19.43664062 12.94201172 -18.74828125 12.94652344 -18.0390625 12.95117188 C-16.35933665 12.96283664 -14.67965625 12.98076729 -13 13 C-13.804375 12.113125 -14.60875 11.22625 -15.4375 10.3125 C-17.7039159 7.61712968 -18.68417366 5.57936522 -19 2 C-13.7174714 2.25768432 -11.28293983 4.11562535 -7.61328125 7.625 C-5.93403885 9.23015589 -5.93403885 9.23015589 -3 10 C-2.814375 8.081875 -2.814375 8.081875 -2.625 6.125 C-2.25 2.25 -2.25 2.25 0 0 Z " fill="#F3FAF3" transform="translate(296,161)"/>
<path d="M0 0 C1.19882813 0.04833984 2.39765625 0.09667969 3.6328125 0.14648438 C5.4890625 0.2305957 5.4890625 0.2305957 7.3828125 0.31640625 C9.27386719 0.3947168 9.27386719 0.3947168 11.203125 0.47460938 C14.30496487 0.6038527 17.40644738 0.73880156 20.5078125 0.87890625 C19.51674107 8.53069196 19.51674107 8.53069196 17.5078125 11.87890625 C16.8478125 11.87890625 16.1878125 11.87890625 15.5078125 11.87890625 C15.5078125 12.53890625 15.5078125 13.19890625 15.5078125 13.87890625 C14.8478125 13.87890625 14.1878125 13.87890625 13.5078125 13.87890625 C13.2809375 14.58402344 13.0540625 15.28914062 12.8203125 16.015625 C11.21486335 19.51798877 9.11452981 21.86114778 6.5078125 24.69140625 C5.6209375 25.66722656 4.7340625 26.64304688 3.8203125 27.6484375 C1.5078125 29.87890625 1.5078125 29.87890625 -0.4921875 29.87890625 C-0.56695312 30.42417969 -0.64171875 30.96945313 -0.71875 31.53125 C-1.78826235 34.77759809 -3.67399249 36.83299471 -5.8671875 39.44140625 C-6.65867187 40.39144531 -7.45015625 41.34148437 -8.265625 42.3203125 C-9.95405833 44.26052974 -11.66359557 46.0772847 -13.4921875 47.87890625 C-15.40885417 50.12890625 -15.40885417 50.12890625 -16.4921875 52.87890625 C-15.79277814 56.14705029 -15.79277814 56.14705029 -14.4921875 58.87890625 C-7.66632248 59.65308199 -0.89771023 60.07873951 5.96875 60.23046875 C7.39823471 60.26519791 7.39823471 60.26519791 8.8565979 60.30062866 C10.85145636 60.34787149 12.84636229 60.393148 14.84130859 60.43652344 C17.89571237 60.50419204 20.94975858 60.58185732 24.00390625 60.66015625 C25.95050704 60.70502964 27.89712134 60.74932125 29.84375 60.79296875 C30.7541806 60.81686676 31.66461121 60.84076477 32.60263062 60.86538696 C33.45096466 60.88225555 34.29929871 60.89912415 35.17333984 60.91650391 C35.91595062 60.93347321 36.6585614 60.9504425 37.42367554 60.96792603 C39.61217644 60.87444855 41.43758132 60.59839331 43.5078125 59.87890625 C44.65134166 57.59184794 44.61115689 56.28625863 44.5703125 53.75390625 C44.5496875 52.47515625 44.5290625 51.19640625 44.5078125 49.87890625 C40.44861631 48.52584085 36.36539507 47.96573949 32.41796875 49.90625 C28.03272836 51.37192095 23.89170065 50.90951966 19.3203125 50.62890625 C18.40572266 50.58894531 17.49113281 50.54898438 16.54882812 50.5078125 C9.76630806 50.13740181 9.76630806 50.13740181 7.5078125 47.87890625 C7.86080257 44.43725304 8.55362942 42.81018087 10.5078125 39.87890625 C11.4978125 40.20890625 12.4878125 40.53890625 13.5078125 40.87890625 C12.5178125 42.19890625 11.5278125 43.51890625 10.5078125 44.87890625 C17.73972711 45.45173117 24.91873862 45.93576806 32.17578125 45.83984375 C33.12300049 45.82759766 34.07021973 45.81535156 35.04614258 45.80273438 C36.92255736 45.7704353 38.79879714 45.72506895 40.67456055 45.66601562 C41.96487183 45.6437793 41.96487183 45.6437793 43.28125 45.62109375 C44.04872559 45.59901855 44.81620117 45.57694336 45.60693359 45.55419922 C46.23422363 45.66135254 46.86151367 45.76850586 47.5078125 45.87890625 C49.65945953 49.1063768 49.78026329 50.08396264 49.7578125 53.81640625 C49.76554687 55.09837891 49.76554687 55.09837891 49.7734375 56.40625 C49.49097473 59.03564612 48.92042615 60.65553194 47.5078125 62.87890625 C44.96960484 64.14801008 43.20010202 64.00591759 40.35888672 64.00830078 C39.28371796 64.01145294 38.20854919 64.0146051 37.10079956 64.01785278 C35.93316071 64.01582855 34.76552185 64.01380432 33.5625 64.01171875 C32.36352081 64.01267548 31.16454163 64.0136322 29.92922974 64.01461792 C27.38543648 64.01529973 24.8416415 64.01344539 22.29785156 64.00927734 C18.41988152 64.00395711 14.54202879 64.0092078 10.6640625 64.015625 C8.19270808 64.01496367 5.72135373 64.01368137 3.25 64.01171875 C1.5167598 64.0147551 1.5167598 64.0147551 -0.25149536 64.01785278 C-16.24632276 63.97177006 -16.24632276 63.97177006 -19.49609375 61.12109375 C-21.31939126 57.01688682 -20.4732181 53.15047701 -19.4921875 48.87890625 C-16.58339107 43.17766525 -11.77134082 38.60128637 -7.4921875 33.87890625 C-6.32227623 32.54841893 -5.15545818 31.21520346 -3.9921875 29.87890625 C-1.55745457 27.08612436 0.90616329 24.32204559 3.3828125 21.56640625 C11.23223001 13.2737799 11.23223001 13.2737799 17.5078125 3.87890625 C7.9378125 3.54890625 -1.6321875 3.21890625 -11.4921875 2.87890625 C-11.8221875 2.21890625 -12.1521875 1.55890625 -12.4921875 0.87890625 C-8.22507975 0.04403734 -4.34018498 -0.18600793 0 0 Z " fill="#E9F7E9" transform="translate(98.4921875,191.12109375)"/>
<path d="M0 0 C0.47751709 0.48927979 0.95503418 0.97855957 1.44702148 1.48266602 C6.31141207 6.23540733 19.50640385 4.32104066 26.22875977 4.50268555 C28.42933222 4.56227881 30.62968969 4.62735018 32.83007812 4.69335938 C39.62265602 4.89068598 46.40339172 5.05760322 53.19946289 4.91772461 C55 5 55 5 57 6 C57.484375 7.78515625 57.484375 7.78515625 57.75 10.0625 C57.84796875 10.79597656 57.9459375 11.52945313 58.046875 12.28515625 C57.91373772 19.99602394 55.62549493 24.25265764 50.3125 29.5 C49.22057242 30.62684717 48.12942274 31.75444867 47.0390625 32.8828125 C46.51344727 33.4180957 45.98783203 33.95337891 45.44628906 34.50488281 C43.61555074 36.39742864 41.89504643 38.37116698 40.1875 40.375 C38.0357178 42.87148518 35.80361136 45.20590072 33.4375 47.5 C30.31801492 50.54922641 27.77153067 53.83656743 25.26171875 57.3984375 C24 59 24 59 22 60 C22.61277612 57.03824877 23.25372522 55.61941217 25 53 C25.66 53 26.32 53 27 53 C27.433125 52.071875 27.433125 52.071875 27.875 51.125 C29 49 29 49 31 47 C32.03842565 44.68351201 33.0421975 42.35096976 34 40 C34.66 40 35.32 40 36 40 C36.33 39.01 36.66 38.02 37 37 C37.804375 36.360625 38.60875 35.72125 39.4375 35.0625 C41.99067205 33.00750786 42.62504454 31.84157463 44 29 C47.42857143 26 47.42857143 26 50 26 C50.12375 25.38125 50.2475 24.7625 50.375 24.125 C51 22 51 22 53 20 C53.68177998 17.34280163 53.68177998 17.34280163 54.125 14.375 C54.29257813 13.37210938 54.46015625 12.36921875 54.6328125 11.3359375 C54.81457031 10.17964844 54.81457031 10.17964844 55 9 C54.15308594 9.25233398 54.15308594 9.25233398 53.2890625 9.50976562 C50.84431627 10.03334182 48.8650958 10.01205452 46.375 9.84375 C45.06789063 9.76447266 45.06789063 9.76447266 43.734375 9.68359375 C41 9.5 41 9.5 38.265625 9.31640625 C36.95851563 9.23712891 36.95851563 9.23712891 35.625 9.15625 C34.43777344 9.07600586 34.43777344 9.07600586 33.2265625 8.99414062 C30.98198186 8.89950724 30.98198186 8.89950724 28.8359375 9.61523438 C28.23007813 9.74220703 27.62421875 9.86917969 27 10 C26.34 9.34 25.68 8.68 25 8 C22.51959675 7.82681208 20.16440152 7.76763715 17.6875 7.8125 C16.37136719 7.81894531 15.05523437 7.82539063 13.69921875 7.83203125 C10.63703429 7.97107447 7.96754553 8.29932953 5 9 C1.3125 9.6875 1.3125 9.6875 -2 10 C-2.66 9.34 -3.32 8.68 -4 8 C-6.09350689 11.4019487 -6.17942163 14.05272412 -6 18 C-8 17 -8 17 -8.9375 14.5625 C-9.84547289 11.70136041 -9.84547289 11.70136041 -13 10 C-12.875 6.6875 -12.875 6.6875 -12 3 C-8.10854137 0.19452982 -4.7502148 -0.63336197 0 0 Z " fill="#E7F6E8" transform="translate(90,171)"/>
<path d="M0 0 C1.22332031 -0.02835938 2.44664062 -0.05671875 3.70703125 -0.0859375 C7.86219328 0.46435332 9.3910292 1.27227297 12.1875 4.375 C14.75836435 10.35572335 14.42115085 16.38956316 14.3125 22.8125 C14.30347656 23.83021484 14.29445312 24.84792969 14.28515625 25.89648438 C14.26174698 28.38957156 14.228957 30.88215859 14.1875 33.375 C13.8575 33.375 13.5275 33.375 13.1875 33.375 C13.1875 27.105 13.1875 20.835 13.1875 14.375 C12.5275 14.375 11.8675 14.375 11.1875 14.375 C10.5275 10.745 9.8675 7.115 9.1875 3.375 C3.9075 3.375 -1.3725 3.375 -6.8125 3.375 C-6.88721371 9.99118644 -6.94136686 16.60712185 -6.97729492 23.22363281 C-6.99228852 25.46977014 -7.0126902 27.71587866 -7.03881836 29.96191406 C-7.07561931 33.20905715 -7.09232116 36.45580985 -7.10546875 39.703125 C-7.12095261 40.69113098 -7.13643646 41.67913696 -7.15238953 42.69708252 C-7.15416119 50.20375514 -7.12195477 59.89004221 -1.70426941 65.59503174 C-1.0799855 66.18242126 -0.4557016 66.76981079 0.1875 67.375 C0.1875 68.035 0.1875 68.695 0.1875 69.375 C2.1675 69.705 4.1475 70.035 6.1875 70.375 C6.1875 71.035 6.1875 71.695 6.1875 72.375 C6.76757812 72.55675781 7.34765625 72.73851562 7.9453125 72.92578125 C11.61556107 74.10680183 15.00535658 75.28042553 18.4375 77.0625 C22.83603936 79.16180288 25.74081562 78.60675767 30.25 77.1875 C31.90007734 76.59502257 33.54550408 75.98951943 35.1875 75.375 C36.21359375 75.01148438 37.2396875 74.64796875 38.296875 74.2734375 C44.52745909 71.91797278 48.17339364 70.40321272 51.1875 64.375 C51.8475 64.045 52.5075 63.715 53.1875 63.375 C54.06664618 60.63707187 54.06664618 60.63707187 54.75 57.4375 C56.1080298 51.5339404 56.1080298 51.5339404 57.1875 49.375 C57.27727728 47.86335608 57.30507433 46.34779821 57.30102539 44.83349609 C57.30094986 43.89267181 57.30087433 42.95184753 57.30079651 41.98251343 C57.29563522 40.96476837 57.29047394 39.94702332 57.28515625 38.8984375 C57.2837413 37.85805328 57.28232635 36.81766907 57.28086853 35.74575806 C57.27525866 32.41380979 57.26270447 29.08192805 57.25 25.75 C57.24498627 23.49479264 57.24042314 21.23958422 57.23632812 18.984375 C57.22528603 13.44789386 57.20853827 7.91145168 57.1875 2.375 C58.1775 2.87 58.1775 2.87 59.1875 3.375 C60.84791348 12.55690343 60.30042623 22.29297517 60.05541992 31.59521484 C60.00007018 33.87211286 59.97151442 36.14840554 59.94335938 38.42578125 C59.70372479 50.27281114 58.6650314 61.97870258 49.8984375 70.80078125 C49.33382812 71.32027344 48.76921875 71.83976562 48.1875 72.375 C47.424375 73.1175 46.66125 73.86 45.875 74.625 C37.73012048 79.92864248 28.80985872 82.25798116 19.140625 80.96875 C8.19824778 78.63585739 -0.55774855 72.74962747 -6.8125 63.375 C-8.6522824 58.04682618 -9.15553447 53.25320166 -9.26171875 47.6875 C-9.28345657 46.86733398 -9.3051944 46.04716797 -9.32759094 45.20214844 C-9.37131179 43.47097139 -9.41055492 41.73967606 -9.44555664 40.00830078 C-9.49927565 37.41003493 -9.56977279 34.81263677 -9.64257812 32.21484375 C-10.17158127 11.2429858 -10.17158127 11.2429858 -8.8125 2.375 C-5.97255391 -0.46494609 -3.95852431 0.04145052 0 0 Z " fill="#F3FCF3" transform="translate(162.8125,176.625)"/>
<path d="M0 0 C0.88671875 1.6640625 0.88671875 1.6640625 1 4 C-0.10454646 6.37385952 -1.23514944 8.42659859 -2.625 10.625 C-3.02017822 11.27162598 -3.41535645 11.91825195 -3.82250977 12.58447266 C-6.20374597 16.4007945 -8.74327894 20.06130316 -11.42578125 23.671875 C-12.0069873 24.45481934 -12.58819336 25.23776367 -13.18701172 26.04443359 C-14.32842019 27.56408287 -15.48442609 29.07290937 -16.65673828 30.56884766 C-23.57829274 39.71764532 -23.32299424 49.07101689 -23.47851562 60.1796875 C-23.73080482 69.11441719 -23.73080482 69.11441719 -27 73 C-30.66562999 75.49929317 -32.4124639 76.04738194 -36.875 75.6875 C-37.90625 75.460625 -38.9375 75.23375 -40 75 C-40.33 73.68 -40.66 72.36 -41 71 C-40.01 71.66 -39.02 72.32 -38 73 C-35.21133907 72.36162086 -35.21133907 72.36162086 -32.3125 71.125 C-31.31863281 70.73570312 -30.32476562 70.34640625 -29.30078125 69.9453125 C-28.54152344 69.63335937 -27.78226562 69.32140625 -27 69 C-27.02356567 67.72938721 -27.02356567 67.72938721 -27.04760742 66.43310547 C-27.0989557 63.26857796 -27.13645672 60.10426392 -27.16479492 56.93945312 C-27.17981428 55.57382184 -27.20023608 54.20823824 -27.22631836 52.84277344 C-27.26300137 50.87196095 -27.27818551 48.90078592 -27.29296875 46.9296875 C-27.3086792 45.74616699 -27.32438965 44.56264648 -27.34057617 43.34326172 C-26.79557933 37.99330704 -24.2998401 34.12480013 -21 30 C-20.505 29.34 -20.01 28.68 -19.5 28 C-15 22 -15 22 -13.375 19.9140625 C-11.86668638 17.98682771 -11.86668638 17.98682771 -11 15.375 C-10 13 -10 13 -7 11 C-5.77803891 8.82389333 -5.77803891 8.82389333 -4.8125 6.375 C-4.214375 4.93125 -3.61625 3.4875 -3 2 C-7.29 2 -11.58 2 -16 2 C-16 2.66 -16 3.32 -16 4 C-16.66 4 -17.32 4 -18 4 C-18.66 5.32 -19.32 6.64 -20 8 C-20.66 8 -21.32 8 -22 8 C-22 8.66 -22 9.32 -22 10 C-23.98 10.99 -23.98 10.99 -26 12 C-24.51129888 6.70684048 -20.91398865 2.73092904 -17 -1 C-11.33902101 -2.886993 -5.3760418 -2.62245942 0 0 Z M-42 11 C-39.35247996 13.57784846 -37.05567935 15.91648098 -35 19 C-34.01 19.33 -33.02 19.66 -32 20 C-31.62875 18.8553125 -31.62875 18.8553125 -31.25 17.6875 C-29.89004442 14.7635955 -28.68414174 13.69995644 -26 12 C-28.6 19 -28.6 19 -31 22 C-34.1875 22.3125 -34.1875 22.3125 -37 22 C-37.33 21.01 -37.66 20.02 -38 19 C-38.66 18.67 -39.32 18.34 -40 18 C-40.73075648 15.6859378 -41.40138258 13.35171131 -42 11 Z " fill="#FDFAF2" transform="translate(453,178)"/>
<path d="M0 0 C1.32 0.66 2.64 1.32 4 2 C4 3.32 4 4.64 4 6 C4.598125 5.67 5.19625 5.34 5.8125 5 C8 4 8 4 11 4 C11.38091797 5.03060547 11.38091797 5.03060547 11.76953125 6.08203125 C12.11371094 6.98308594 12.45789063 7.88414062 12.8125 8.8125 C13.14894531 9.70582031 13.48539062 10.59914062 13.83203125 11.51953125 C14.96197319 13.91924072 16.01062293 15.28423353 18 17 C16.35 17.33 14.7 17.66 13 18 C13 19.65 13 21.3 13 23 C10.36 22.67 7.72 22.34 5 22 C5.33 22.66 5.66 23.32 6 24 C6.09868631 26.61518725 6.13896965 29.19784734 6.125 31.8125 C6.13080078 32.88081055 6.13080078 32.88081055 6.13671875 33.97070312 C6.12968433 37.77280929 5.914708 41.30487007 5 45 C4.34 45 3.68 45 3 45 C3 45.99 3 46.98 3 48 C2.34 48 1.68 48 1 48 C1 48.66 1 49.32 1 50 C-0.75 51.5078125 -0.75 51.5078125 -3 53.125 C-3.7425 53.66382813 -4.485 54.20265625 -5.25 54.7578125 C-5.8275 55.16773438 -6.405 55.57765625 -7 56 C-7.33 55.34 -7.66 54.68 -8 54 C-6.625 52.5 -6.625 52.5 -5 51 C-4.34 51 -3.68 51 -3 51 C-2.34 49.68 -1.68 48.36 -1 47 C-0.34 47 0.32 47 1 47 C2.53767346 38.01282114 3.48143798 29.102128 4 20 C5.65 20 7.3 20 9 20 C9.66 16.7 10.32 13.4 11 10 C4.99945246 8.33318124 -0.7945858 7.48320848 -7 7 C-7 7.66 -7 8.32 -7 9 C-13.27 9 -19.54 9 -26 9 C-25.67 8.34 -25.34 7.68 -25 7 C-19.39 7.33 -13.78 7.66 -8 8 C-8 6.68 -8 5.36 -8 4 C-5.69 4 -3.38 4 -1 4 C-0.67 2.68 -0.34 1.36 0 0 Z " fill="#DEF1DA" transform="translate(295,168)"/>
<path d="M0 0 C4.62 0 9.24 0 14 0 C14.69419762 3.47098809 15.12766975 6.03250091 15.14526367 9.45141602 C15.15164352 10.29901993 15.15802338 11.14662384 15.16459656 12.01991272 C15.16570938 12.92213058 15.1668222 13.82434845 15.16796875 14.75390625 C15.17129715 15.69177475 15.17462555 16.62964325 15.17805481 17.59593201 C15.18310603 19.57363394 15.18546369 21.55134436 15.18530273 23.52905273 C15.1874948 26.55531765 15.20568487 29.58122112 15.22460938 32.60742188 C15.22754254 34.53124876 15.22952785 36.45507736 15.23046875 38.37890625 C15.23765427 39.28314835 15.24483978 40.18739044 15.25224304 41.11903381 C15.24916641 41.96348557 15.24608978 42.80793732 15.24291992 43.67797852 C15.24434494 44.41790543 15.24576996 45.15783234 15.24723816 45.92018127 C14.96296766 48.31152369 14.13645194 49.89340409 13 52 C12.45807271 54.57716532 12.05793352 57.15488163 11.66015625 59.7578125 C11 62 11 62 8 64 C7.54625 64.825 7.0925 65.65 6.625 66.5 C4.71078701 69.44494305 3.30564167 70.01724166 0 71 C0.66 69.02 1.32 67.04 2 65 C2.99 65 3.98 65 5 65 C10.08493543 57.20278233 10.93024514 49.6429265 11.28662109 40.59814453 C11.37407995 38.39814351 11.49457578 36.20197129 11.62109375 34.00390625 C12.13019927 24.26552661 11.80931784 14.71345566 11 5 C7.09778382 3.32383584 4.27423355 2.7150511 0 3 C-0.99 3.495 -0.99 3.495 -2 4 C-1.34 2.68 -0.68 1.36 0 0 Z " fill="#DAF5DA" transform="translate(206,178)"/>
<path d="M0 0 C6.80203375 -0.37634203 11.75690073 0.22528921 18 3 C17.67 6.63 17.34 10.26 17 14 C11.00458015 13.73549618 11.00458015 13.73549618 8 13 C5.75 10.5 5.75 10.5 4 8 C2.700625 7.7525 2.700625 7.7525 1.375 7.5 C0.59125 7.335 -0.1925 7.17 -1 7 C-2.3125 4.4375 -2.3125 4.4375 -3 2 C-2.01 2 -1.02 2 0 2 C0 1.34 0 0.68 0 0 Z " fill="#CEE7BD" transform="translate(288,175)"/>
<path d="M0 0 C2.10388122 0.46678823 4.19281522 1.00011342 6.27734375 1.546875 C6.60734375 2.866875 6.93734375 4.186875 7.27734375 5.546875 C7.93734375 5.546875 8.59734375 5.546875 9.27734375 5.546875 C9.35885119 7.60871133 9.41676315 9.67148849 9.46484375 11.734375 C9.51705078 13.45720703 9.51705078 13.45720703 9.5703125 15.21484375 C9.24540195 18.91015972 8.66279814 20.71641176 6.27734375 23.546875 C2.24832859 25.01326568 -2.0976394 24.68025768 -6.34765625 24.671875 C-7.65992188 24.67445313 -8.9721875 24.67703125 -10.32421875 24.6796875 C-13.72265625 24.546875 -13.72265625 24.546875 -16.72265625 23.546875 C-16.80947101 19.92202501 -16.86298346 16.29744057 -16.91015625 12.671875 C-16.93529297 11.63933594 -16.96042969 10.60679687 -16.98632812 9.54296875 C-16.99599609 8.55683594 -17.00566406 7.57070312 -17.015625 6.5546875 C-17.03919067 5.18787842 -17.03919067 5.18787842 -17.06323242 3.79345703 C-16.95084229 3.05208496 -16.83845215 2.31071289 -16.72265625 1.546875 C-11.73032995 -1.78134253 -5.78792376 -0.96326995 0 0 Z M-14.72265625 2.546875 C-14.75154139 5.69268923 -14.76941548 8.83846969 -14.78515625 11.984375 C-14.79353516 12.88220703 -14.80191406 13.78003906 -14.81054688 14.70507812 C-14.81376953 15.55908203 -14.81699219 16.41308594 -14.8203125 17.29296875 C-14.82554932 18.08372803 -14.83078613 18.8744873 -14.83618164 19.68920898 C-14.92761534 21.56280189 -14.92761534 21.56280189 -13.72265625 22.546875 C-11.31124904 22.70149051 -8.94815054 22.77857741 -6.53515625 22.796875 C-4.56482422 22.83554688 -4.56482422 22.83554688 -2.5546875 22.875 C1.47584523 22.52987793 3.86783412 21.67846524 7.27734375 19.546875 C8.87752458 16.34651335 8.63899373 13.02775605 8.27734375 9.546875 C7.19440508 6.12676228 7.19440508 6.12676228 5.27734375 3.546875 C1.29795495 2.1522148 -2.80876453 2.43655646 -6.97265625 2.484375 C-8.09027344 2.49114258 -8.09027344 2.49114258 -9.23046875 2.49804688 C-11.06123265 2.50978254 -12.89195498 2.5277165 -14.72265625 2.546875 Z " fill="#F2FBF1" transform="translate(271.72265625,190.453125)"/>
<path d="M0 0 C1.66611905 -0.042721 3.33382885 -0.04063832 5 0 C6.73478558 1.73478558 6.25366416 4.01537323 6.3125 6.375 C6.36857422 7.84066406 6.36857422 7.84066406 6.42578125 9.3359375 C6 12 6 12 4.26469421 13.63848877 C1.71019469 15.17422802 0.29407278 15.3964322 -2.66088867 15.44824219 C-4.03702583 15.48277496 -4.03702583 15.48277496 -5.44096375 15.51800537 C-6.4233754 15.52753235 -7.40578705 15.53705933 -8.41796875 15.546875 C-9.43095535 15.56719788 -10.44394196 15.58752075 -11.48762512 15.60845947 C-13.62501495 15.6486261 -15.7625459 15.68180623 -17.90014648 15.70849609 C-21.18583127 15.74997893 -24.4705912 15.8125769 -27.75585938 15.87890625 C-29.83070795 15.91529288 -31.9055778 15.95049045 -33.98046875 15.984375 C-34.96895309 16.0019989 -35.95743744 16.0196228 -36.97587585 16.03778076 C-37.88384415 16.04819397 -38.79181244 16.05860718 -39.72729492 16.06933594 C-40.53019455 16.08027283 -41.33309418 16.09120972 -42.1603241 16.10247803 C-44 16 -44 16 -45 15 C-47.77558423 14.71520878 -50.55127845 14.55156981 -53.3359375 14.37890625 C-56 14 -56 14 -59 12 C-59.1875 9.375 -59.1875 9.375 -59 7 C-58.01 7.495 -58.01 7.495 -57 8 C-56.67 8.99 -56.34 9.98 -56 11 C-49.17413498 11.77417574 -42.40552273 12.19983326 -35.5390625 12.3515625 C-34.10957779 12.38629166 -34.10957779 12.38629166 -32.6512146 12.42172241 C-30.65635614 12.46896524 -28.66145021 12.51424175 -26.66650391 12.55761719 C-23.61210013 12.62528579 -20.55805392 12.70295107 -17.50390625 12.78125 C-15.55730546 12.82612339 -13.61069116 12.870415 -11.6640625 12.9140625 C-10.7536319 12.93796051 -9.84320129 12.96185852 -8.90518188 12.98648071 C-8.05684784 13.0033493 -7.20851379 13.0202179 -6.33447266 13.03759766 C-5.59186188 13.05456696 -4.8492511 13.07153625 -4.08413696 13.08901978 C-1.89563606 12.9955423 -0.07023118 12.71948706 2 12 C3.10647808 9.78704384 3.19588368 8.45327301 3.25 6 C3.28867188 4.948125 3.28867188 4.948125 3.328125 3.875 C3.21984375 3.25625 3.1115625 2.6375 3 2 C2.01 1.34 1.02 0.68 0 0 Z " fill="#E1F6E4" transform="translate(140,239)"/>
<path d="M0 0 C1.79244141 0.01740234 1.79244141 0.01740234 3.62109375 0.03515625 C5.41740234 0.04869141 5.41740234 0.04869141 7.25 0.0625 C8.17683594 0.07410156 9.10367188 0.08570313 10.05859375 0.09765625 C10.38859375 0.75765625 10.71859375 1.41765625 11.05859375 2.09765625 C9.90230469 2.04544922 9.90230469 2.04544922 8.72265625 1.9921875 C7.21832031 1.95158203 7.21832031 1.95158203 5.68359375 1.91015625 C4.68585938 1.87535156 3.688125 1.84054688 2.66015625 1.8046875 C1.37238281 1.94970703 1.37238281 1.94970703 0.05859375 2.09765625 C-2.11103351 5.35209714 -2.18954914 6.26725701 -2.171875 10.02734375 C-2.16994141 10.98769531 -2.16800781 11.94804687 -2.16601562 12.9375 C-2.15376953 13.93910156 -2.14152344 14.94070312 -2.12890625 15.97265625 C-2.12826172 16.96652344 -2.12761719 17.96039063 -2.12695312 18.984375 C-2.13553571 24.27262073 -2.13553571 24.27262073 -1.45556641 29.49975586 C-0.83551869 32.63267502 -0.69090576 35.66906078 -0.546875 38.859375 C-0.47791016 40.14263672 -0.40894531 41.42589844 -0.33789062 42.74804688 C-0.23011344 44.77558975 -0.12816804 46.80268308 -0.04272461 48.83129883 C0.04243066 50.79983255 0.15363888 52.76718525 0.265625 54.734375 C0.32210205 55.90701904 0.3785791 57.07966309 0.43676758 58.2878418 C0.74457153 59.67869995 0.74457153 59.67869995 1.05859375 61.09765625 C2.99069944 62.41561236 2.99069944 62.41561236 5.05859375 63.09765625 C5.80859375 65.22265625 5.80859375 65.22265625 6.05859375 67.09765625 C4.05859375 67.09765625 4.05859375 67.09765625 1.62109375 64.84765625 C-6.20871108 54.71386922 -4.33681712 39.75760965 -4.22265625 27.73950195 C-4.19112563 24.38025969 -4.1816402 21.02148588 -4.17578125 17.66210938 C-4.16662472 15.53254629 -4.1562533 13.40298801 -4.14453125 11.2734375 C-4.14028137 10.26630203 -4.13603149 9.25916656 -4.13165283 8.22151184 C-4.12204529 7.29932358 -4.11243774 6.37713531 -4.10253906 5.42700195 C-4.09571106 4.61270218 -4.08888306 3.7984024 -4.08184814 2.95942688 C-3.8448242 -0.18268551 -3.2007567 0.10626682 0 0 Z " fill="#E2F6E5" transform="translate(158.94140625,178.90234375)"/>
<path d="M0 0 C2 1 2 1 2.8125 3.125 C3.02077694 6.31857968 2.24422519 8.21011442 0.88671875 11.06640625 C-0.03589068 13.07826381 -0.74915102 15.08442274 -1.4375 17.1875 C-1.68242187 17.93515625 -1.92734375 18.6828125 -2.1796875 19.453125 C-2.79323273 21.35803686 -3.40179236 23.2645558 -4.0078125 25.171875 C-4.35585938 26.24953125 -4.70390625 27.3271875 -5.0625 28.4375 C-5.38347656 29.44683594 -5.70445312 30.45617187 -6.03515625 31.49609375 C-7 34 -7 34 -9 36 C-10.04763618 38.32301935 -11.0395853 40.641754 -12 43 C-13.56514286 46.71915135 -15.13715675 50.41760913 -17 54 C-17.30509002 48.52256982 -16.33792054 44.27561296 -14.3125 39.25 C-14.04066895 38.5489917 -13.76883789 37.8479834 -13.48876953 37.12573242 C-11.91605454 33.12141459 -10.20970794 29.20482433 -8.375 25.3125 C-5.60123936 19.39930609 -3.78790103 13.27001238 -2 7 C-1.77183594 6.21496094 -1.54367187 5.42992187 -1.30859375 4.62109375 C-0.86427091 3.08305315 -0.43032957 1.54201431 0 0 Z " fill="#FDFBF4" transform="translate(321,198)"/>
<path d="M0 0 C0 0.33 0 0.66 0 1 C-6.75564602 3.19525828 -12.51746806 4.14317605 -19.609375 3.91015625 C-23.23542348 4.04642931 -25.49119384 5.49119384 -28 8 C-28.0640335 10.85188022 -28.06608473 13.68021401 -28.02734375 16.53125 C-28.01468204 18.30989378 -28.00232225 20.08853973 -27.99023438 21.8671875 C-27.96555267 24.67357123 -27.93774199 27.47984222 -27.90405273 30.28613281 C-27.87356741 32.99284525 -27.85597666 35.69941897 -27.83984375 38.40625 C-27.82638412 39.23161255 -27.8129245 40.0569751 -27.79905701 40.90734863 C-27.7752826 46.51484946 -28.56568379 51.58159596 -30 57 C-30.33 57 -30.66 57 -31 57 C-30.9329806 49.97044118 -30.84316594 42.94143767 -30.73754883 35.91235352 C-30.70430833 33.52147017 -30.67627371 31.13050852 -30.65356445 28.73950195 C-30.62000317 25.30125581 -30.56768476 21.86372671 -30.51171875 18.42578125 C-30.50532883 17.35789871 -30.4989389 16.29001617 -30.49235535 15.18977356 C-30.37940603 9.47981362 -30.25080798 5.25080798 -26 1 C-24.6690706 0.84354045 -23.33066766 0.7493472 -21.9921875 0.68359375 C-21.16976562 0.64169922 -20.34734375 0.59980469 -19.5 0.55664062 C-18.63375 0.51732422 -17.7675 0.47800781 -16.875 0.4375 C-16.03195313 0.39431641 -15.18890625 0.35113281 -14.3203125 0.30664062 C-9.54075048 0.0728577 -4.78500515 -0.04538623 0 0 Z " fill="#DAF6DC" transform="translate(267,177)"/>
<path d="M0 0 C0.33 0 0.66 0 1 0 C0.90718055 6.52897535 0.79980797 13.05759863 0.68261719 19.58618164 C0.64448369 21.80422628 0.60960439 24.02232946 0.578125 26.24047852 C0.53213353 29.44047889 0.47419671 32.64008158 0.4140625 35.83984375 C0.39673569 37.31226784 0.39673569 37.31226784 0.37905884 38.81443787 C0.06156214 53.83936966 0.06156214 53.83936966 -3.70703125 57.7890625 C-11.30544888 60.80587395 -19.24442756 60.58519081 -27 58 C-26.67 56.68 -26.34 55.36 -26 54 C-26 54.66 -26 55.32 -26 56 C-22.67066298 57.10977901 -20.12771692 57.13301537 -16.625 57.125 C-15.50351563 57.12757813 -14.38203125 57.13015625 -13.2265625 57.1328125 C-10.35735378 57.01470948 -7.78791771 56.65782328 -5 56 C-4.67 55.01 -4.34 54.02 -4 53 C-3.34 53 -2.68 53 -2 53 C-1.9845388 52.04826401 -1.9845388 52.04826401 -1.96876526 51.07730103 C-1.86083865 44.49153038 -1.74622965 37.90590041 -1.62768555 31.3203125 C-1.58429221 28.86038141 -1.54262044 26.40041935 -1.50268555 23.94042969 C-1.44508943 20.41071216 -1.38136443 16.88115124 -1.31640625 13.3515625 C-1.29969376 12.24632233 -1.28298126 11.14108215 -1.26576233 10.00234985 C-1.24581711 8.98144257 -1.22587189 7.96053528 -1.20532227 6.90869141 C-1.18977798 6.00712311 -1.1742337 5.10555481 -1.15821838 4.17666626 C-1 2 -1 2 0 0 Z " fill="#DFF7DF" transform="translate(203,182)"/>
<path d="M0 0 C0.78375 0.04125 1.5675 0.0825 2.375 0.125 C1.56675781 0.68058594 0.75851563 1.23617187 -0.07421875 1.80859375 C-4.3788467 6.13144234 -3.40976696 12.48990146 -3.4375 18.1875 C-3.46263672 19.35216797 -3.48777344 20.51683594 -3.51367188 21.71679688 C-3.64242451 28.31996761 -3.63580564 34.92211334 -3.58276367 41.52612305 C-3.64121367 45.12265605 -4.07841642 48.57220672 -4.625 52.125 C-3.965 52.455 -3.305 52.785 -2.625 53.125 C-3.285 54.115 -3.945 55.105 -4.625 56.125 C-5.285 56.125 -5.945 56.125 -6.625 56.125 C-6.50612107 49.88098924 -6.38183465 43.63711734 -6.25268555 37.39331055 C-6.20955675 35.27224602 -6.16786764 33.15115169 -6.12768555 31.0300293 C-6.06944466 27.96914717 -6.00590952 24.90841206 -5.94140625 21.84765625 C-5.92469376 20.90978775 -5.90798126 19.97191925 -5.89076233 19.00563049 C-5.47546728 0.26073654 -5.47546728 0.26073654 0 0 Z " fill="#D4F5D5" transform="translate(208.625,179.875)"/>
<path d="M0 0 C3.458176 -0.0868329 6.91607344 -0.14033282 10.375 -0.1875 C11.85226563 -0.22520508 11.85226563 -0.22520508 13.359375 -0.26367188 C14.77089844 -0.27817383 14.77089844 -0.27817383 16.2109375 -0.29296875 C17.08024902 -0.3086792 17.94956055 -0.32438965 18.84521484 -0.34057617 C19.55629395 -0.22818604 20.26737305 -0.1157959 21 0 C23.15164703 3.22747055 23.27245079 4.20505639 23.25 7.9375 C23.25773437 9.21947266 23.25773437 9.21947266 23.265625 10.52734375 C22.98316223 13.15673987 22.41261365 14.77662569 21 17 C18.69179492 18.15410254 17.39215724 18.1210297 14.82568359 18.11352539 C13.53457169 18.11341209 13.53457169 18.11341209 12.21737671 18.11329651 C11.28712677 18.10813522 10.35687683 18.10297394 9.3984375 18.09765625 C8.44683746 18.0962413 7.49523743 18.09482635 6.51480103 18.09336853 C3.46816903 18.08776012 0.42160987 18.07520619 -2.625 18.0625 C-4.68749894 18.05748608 -6.74999903 18.05292299 -8.8125 18.04882812 C-13.87502817 18.03778796 -18.93750173 18.02051767 -24 18 C-24 17.67 -24 17.34 -24 17 C-22.77369873 16.98018066 -21.54739746 16.96036133 -20.28393555 16.93994141 C-15.73831492 16.86392381 -11.19301601 16.77520053 -6.64770508 16.68261719 C-4.67967069 16.64431153 -2.7115659 16.60946145 -0.7434082 16.578125 C2.08407772 16.53250889 4.91107834 16.47450902 7.73828125 16.4140625 C9.06029289 16.39673569 9.06029289 16.39673569 10.40901184 16.37905884 C11.22963608 16.35918915 12.05026031 16.33931946 12.89575195 16.31884766 C13.61745071 16.30552399 14.33914948 16.29220032 15.0827179 16.2784729 C17.32601629 16.09273845 17.32601629 16.09273845 20 14 C20.40271513 11.36917808 20.40271513 11.36917808 20.25 8.4375 C20.23453125 7.44621094 20.2190625 6.45492187 20.203125 5.43359375 C20.26819387 3.05291359 20.26819387 3.05291359 19 2 C17.58672053 1.84379445 16.1664541 1.74943827 14.74609375 1.68359375 C13.89208984 1.64169922 13.03808594 1.59980469 12.15820312 1.55664062 C11.26037109 1.51732422 10.36253906 1.47800781 9.4375 1.4375 C8.53580078 1.39431641 7.63410156 1.35113281 6.70507812 1.30664062 C4.47021515 1.20021858 2.23523692 1.09820012 0 1 C0 0.67 0 0.34 0 0 Z " fill="#F4FCF5" transform="translate(125,237)"/>
<path d="M0 0 C1.74565111 3.21639654 2.204437 5.32013404 2 9 C2.66 9 3.32 9 4 9 C4.02908357 12.41664873 4.04682691 15.8332655 4.0625 19.25 C4.07087891 20.21808594 4.07925781 21.18617188 4.08789062 22.18359375 C4.09111328 23.11816406 4.09433594 24.05273438 4.09765625 25.015625 C4.10289307 25.87446289 4.10812988 26.73330078 4.11352539 27.61816406 C4.00494212 29.8963111 3.59023555 31.80691769 3 34 C2.90751982 35.97744386 2.87000732 37.95790108 2.875 39.9375 C2.87242187 40.95714844 2.86984375 41.97679687 2.8671875 43.02734375 C2.99088064 45.79588725 3.37473262 48.30539535 4 51 C3.01 50.67 2.02 50.34 1 50 C-0.04011841 43.0552094 0.15625947 36.56238634 0.73828125 29.578125 C1.4629355 19.67091168 0.90522272 9.87662651 0 0 Z " fill="#E0F3E2" transform="translate(172,182)"/>
<path d="M0 0 C1.32 0.33 2.64 0.66 4 1 C4 1.66 4 2.32 4 3 C4.58007812 3.18175781 5.16015625 3.36351562 5.7578125 3.55078125 C9.42806107 4.73180183 12.81785658 5.90542553 16.25 7.6875 C21.55083737 10.21744511 25.48527469 8.71585848 30.78125 6.87109375 C33.24438597 5.94529229 33.24438597 5.94529229 36.4375 4.25 C37.283125 3.8375 38.12875 3.425 39 3 C39.66 3.33 40.32 3.66 41 4 C33.20096041 9.38505115 26.62782991 12.9444236 16.9296875 11.5625 C10.89787075 10.25832341 6.6675838 9.1084203 3 4 C3 3.34 3 2.68 3 2 C2.01 1.67 1.02 1.34 0 1 C0 0.67 0 0.34 0 0 Z " fill="#E9F8EA" transform="translate(165,246)"/>
<path d="M0 0 C4.51836791 6.77755186 8.20337871 13.72677136 7 22 C3.41717765 24.38854824 1.68606967 24.26898802 -2.5625 24.25 C-4.29693359 24.25773437 -4.29693359 24.25773437 -6.06640625 24.265625 C-9 24 -9 24 -11 22 C-10.07316406 21.87882812 -9.14632813 21.75765625 -8.19140625 21.6328125 C-6.99386719 21.46523437 -5.79632813 21.29765625 -4.5625 21.125 C-3.36753906 20.96257812 -2.17257812 20.80015625 -0.94140625 20.6328125 C0.02925781 20.42398438 0.99992187 20.21515625 2 20 C3.26237731 17.47524538 3.09856404 15.68799534 3.0625 12.875 C3.05347656 11.96492187 3.04445313 11.05484375 3.03515625 10.1171875 C3.02355469 9.41851562 3.01195312 8.71984375 3 8 C2.34 8 1.68 8 1 8 C1 7.01 1 6.02 1 5 C0.34 5 -0.32 5 -1 5 C-0.67 3.35 -0.34 1.7 0 0 Z " fill="#FDFBF5" transform="translate(371,230)"/>
<path d="M0 0 C0.33 0.99 0.66 1.98 1 3 C1.90492188 3.09087891 1.90492188 3.09087891 2.828125 3.18359375 C4.02695312 3.30927734 4.02695312 3.30927734 5.25 3.4375 C6.43335938 3.55931641 6.43335938 3.55931641 7.640625 3.68359375 C13.59745328 4.48243993 13.59745328 4.48243993 15.75 7.25 C17.05518125 10.12139874 17.26648789 11.89097466 17 15 C17.66 15 18.32 15 19 15 C18.56179109 19.55737263 18.14958831 22.57653445 15 26 C14.34 25.67 13.68 25.34 13 25 C13.33 24.34 13.66 23.68 14 23 C14.22950319 20.795636 14.41075933 18.58607827 14.5625 16.375 C14.64628906 15.18648437 14.73007812 13.99796875 14.81640625 12.7734375 C14.90728516 11.40058594 14.90728516 11.40058594 15 10 C14.34 10 13.68 10 13 10 C12.67 8.68 12.34 7.36 12 6 C4.63512596 5.00137301 -2.57313685 4.89668969 -10 5 C-7.07651242 1.71669856 -4.24542505 1.04133067 0 0 Z " fill="#DCF3DE" transform="translate(266,186)"/>
<path d="M0 0 C4.62 0 9.24 0 14 0 C14.69164653 3.45823266 15.1296966 6.0411199 15.16113281 9.45141602 C15.17074036 10.29901993 15.1803479 11.14662384 15.19024658 12.01991272 C15.19449646 12.92213058 15.19874634 13.82434845 15.203125 14.75390625 C15.20882507 15.69177475 15.21452515 16.62964325 15.22039795 17.59593201 C15.22982138 19.57362752 15.23637134 21.55133854 15.24023438 23.52905273 C15.24997731 26.55545144 15.28104066 29.58118129 15.3125 32.60742188 C15.31902704 34.53124598 15.32427868 36.45507492 15.328125 38.37890625 C15.3404718 39.28314835 15.3528186 40.18739044 15.36553955 41.11903381 C15.34317179 47.41289412 15.34317179 47.41289412 13.47949219 50.60131836 C12.74714355 51.29366577 12.74714355 51.29366577 12 52 C12.24339111 50.7780896 12.24339111 50.7780896 12.49169922 49.53149414 C13.07478974 45.48038731 13.1436552 41.58133767 13.1328125 37.49609375 C13.13376923 36.69518814 13.13472595 35.89428253 13.13571167 35.06910706 C13.13638921 33.38404257 13.13456479 31.69897542 13.13037109 30.01391602 C13.12500972 27.44216025 13.13033419 24.87057856 13.13671875 22.29882812 C13.13605803 20.65624962 13.134777 19.01367122 13.1328125 17.37109375 C13.13483673 16.60639267 13.13686096 15.84169159 13.13894653 15.05381775 C13.12239574 11.26799487 13.10158617 7.64273527 12 4 C9.51245214 2.75622607 7.77344699 2.86693765 5 2.875 C3.6696875 2.87113281 3.6696875 2.87113281 2.3125 2.8671875 C-0.02676966 2.84872098 -0.02676966 2.84872098 -2 4 C-1.34 2.68 -0.68 1.36 0 0 Z " fill="#E7F6E6" transform="translate(206,178)"/>
<path d="M0 0 C0.99 0.33 1.98 0.66 3 1 C3 1.66 3 2.32 3 3 C3.66 3 4.32 3 5 3 C5.433125 4.134375 5.86625 5.26875 6.3125 6.4375 C7.1478125 8.2009375 7.1478125 8.2009375 8 10 C8.99 10.33 9.98 10.66 11 11 C14.45793247 17.77077686 14.36206081 24.01626497 14.1875 31.5 C14.17396484 32.60859375 14.16042969 33.7171875 14.14648438 34.859375 C14.11138881 37.57343232 14.0622227 40.28645193 14 43 C13.67 43 13.34 43 13 43 C12.98130859 42.37657715 12.96261719 41.7531543 12.94335938 41.11083984 C12.37662262 26.03397524 10.67079244 15.78922955 1.24609375 3.76171875 C0 2 0 2 0 0 Z " fill="#FCFAF4" transform="translate(395,197)"/>
<path d="M0 0 C0.33 0.99 0.66 1.98 1 3 C3.01508358 3.73323796 3.01508358 3.73323796 5 4 C5 4.66 5 5.32 5 6 C5.99 6 6.98 6 8 6 C8 6.99 8 7.98 8 9 C6.35 9 4.7 9 3 9 C2.67 8.34 2.34 7.68 2 7 C0.37114264 6.50301177 -1.27925178 6.07529693 -2.9375 5.6875 C-7.79197876 4.34403512 -7.79197876 4.34403512 -9.625 1.3125 C-9.74875 0.549375 -9.8725 -0.21375 -10 -1 C-6.01178789 -2.32940404 -3.88269755 -1.43803613 0 0 Z " fill="#C6DCA6" transform="translate(295,178)"/>
<path d="M0 0 C0.66 0.33 1.32 0.66 2 1 C1.85811015 3.54194161 1.71160845 6.08347993 1.5625 8.625 C1.52318359 9.33785156 1.48386719 10.05070313 1.44335938 10.78515625 C1.40146484 11.48769531 1.35957031 12.19023437 1.31640625 12.9140625 C1.27974854 13.5529541 1.24309082 14.1918457 1.20532227 14.85009766 C0.94424127 17.58384235 0.45146977 20.29118137 0 23 C-5.28 23 -10.56 23 -16 23 C-17.93395001 19.13209997 -18.23289353 17.8499541 -18.125 13.75 C-18.09792969 12.41195312 -18.09792969 12.41195312 -18.0703125 11.046875 C-18.04710937 10.37140625 -18.02390625 9.6959375 -18 9 C-17.67 9 -17.34 9 -17 9 C-16.34 13.29 -15.68 17.58 -15 22 C-11.04 21.67 -7.08 21.34 -3 21 C-1.19034811 16.38006518 -0.80696494 12.63216823 -0.9375 7.6875 C-0.99106141 5.45887952 -1.02066778 3.22916821 -1 1 C-0.67 0.67 -0.34 0.34 0 0 Z " fill="#DEF3E0" transform="translate(254,229)"/>
<path d="M0 0 C0 0.33 0 0.66 0 1 C-0.96099609 1.185625 -0.96099609 1.185625 -1.94140625 1.375 C-7.14926999 2.6168155 -10.21686784 3.72435655 -13.5 8.0625 C-16.19972809 11.5909216 -18.06316651 12.65948992 -22.4375 13.5 C-23.9544486 13.69894408 -25.47499265 13.87726299 -27 14 C-27 13.01 -27 12.02 -27 11 C-23.71023192 9.90341064 -22.28696233 10.20046862 -19 11 C-18.7525 10.443125 -18.505 9.88625 -18.25 9.3125 C-14.20051237 1.82094788 -8.72759797 -2.34155067 0 0 Z " fill="#FDFBF5" transform="translate(339,241)"/>
<path d="M0 0 C0.625 1.875 0.625 1.875 1 4 C0.34 4.66 -0.32 5.32 -1 6 C-1.24315656 8.66949409 -1.24315656 8.66949409 -1.125 11.625 C-1.10695313 12.62789062 -1.08890625 13.63078125 -1.0703125 14.6640625 C-1.04710938 15.43492187 -1.02390625 16.20578125 -1 17 C2.28889042 18.64444521 5.93324687 18.3990411 9.56640625 18.62109375 C10.77103516 18.80865234 10.77103516 18.80865234 12 19 C12.33 19.66 12.66 20.32 13 21 C10.55987895 20.93997242 8.12586474 20.85299796 5.6875 20.75 C4.99720703 20.73582031 4.30691406 20.72164062 3.59570312 20.70703125 C0.40460492 20.55287192 -1.54247362 20.40168655 -3.984375 18.2578125 C-5.82455568 14.1669493 -5.01868653 10.26239889 -4 6 C-2.86575712 3.67663152 -1.64801424 2.02014648 0 0 Z " fill="#F5FDF5" transform="translate(83,234)"/>
<path d="M0 0 C0.33 0 0.66 0 1 0 C1.90106506 3.9379366 2.21247698 7.72917531 2.39453125 11.76171875 C2.46349609 13.04498047 2.53246094 14.32824219 2.60351562 15.65039062 C2.71129281 17.6779335 2.81323821 19.70502683 2.89868164 21.73364258 C2.98383691 23.7021763 3.09504513 25.669529 3.20703125 27.63671875 C3.2635083 28.80936279 3.31998535 29.98200684 3.37817383 31.19018555 C3.58337646 32.11742432 3.7885791 33.04466309 4 34 C5.93210569 35.31795611 5.93210569 35.31795611 8 36 C8.75 38.125 8.75 38.125 9 40 C7 40 7 40 4.4375 37.8125 C1.02250725 33.66643843 1.30405642 28.89606886 1.140625 23.73046875 C1.31009221 21.08682503 1.31009221 21.08682503 0 20 C-0.08669432 18.5112814 -0.10703494 17.018555 -0.09765625 15.52734375 C-0.09443359 14.62822266 -0.09121094 13.72910156 -0.08789062 12.80273438 C-0.07951172 11.85720703 -0.07113281 10.91167969 -0.0625 9.9375 C-0.05798828 8.98810547 -0.05347656 8.03871094 -0.04882812 7.06054688 C-0.0370011 4.70696935 -0.02052025 2.35351523 0 0 Z " fill="#D6F6DC" transform="translate(156,206)"/>
<path d="M0 0 C2.10265304 2.10265304 2.48131557 3.03772745 3.2890625 5.80859375 C3.50820313 6.55560547 3.72734375 7.30261719 3.953125 8.07226562 C4.17484375 8.85279297 4.3965625 9.63332031 4.625 10.4375 C4.85445313 11.21416016 5.08390625 11.99082031 5.3203125 12.79101562 C6.25158313 16.00888823 7 18.62639027 7 22 C5.68 21.67 4.36 21.34 3 21 C2.34 18.69 1.68 16.38 1 14 C0.67 14 0.34 14 0 14 C0 9.38 0 4.76 0 0 Z " fill="#FDFAEF" transform="translate(360,199)"/>
<path d="M0 0 C0.66 0.33 1.32 0.66 2 1 C2 3.64 2 6.28 2 9 C2.99 9 3.98 9 5 9 C5.33 11.64 5.66 14.28 6 17 C1.8160335 19.06440531 -1.20635871 19.0902668 -5.8125 18.625 C-6.97394531 18.51414063 -8.13539063 18.40328125 -9.33203125 18.2890625 C-10.21246094 18.19367188 -11.09289062 18.09828125 -12 18 C-11.505 16.515 -11.505 16.515 -11 15 C-9.98679687 15.10828125 -9.98679687 15.10828125 -8.953125 15.21875 C-8.06109375 15.3115625 -7.1690625 15.404375 -6.25 15.5 C-5.36828125 15.5928125 -4.4865625 15.685625 -3.578125 15.78125 C-0.76695165 16.05636313 -0.76695165 16.05636313 3 16 C2.7834375 15.26394531 2.566875 14.52789062 2.34375 13.76953125 C2.0653125 12.79371094 1.786875 11.81789062 1.5 10.8125 C1.2215625 9.84957031 0.943125 8.88664063 0.65625 7.89453125 C0.03322392 5.14654124 -0.12302812 2.80401584 0 0 Z " fill="#FDFBF6" transform="translate(345,209)"/>
<path d="M0 0 C1.98 0 3.96 0 6 0 C4.68 0.33 3.36 0.66 2 1 C2 1.66 2 2.32 2 3 C-1.19457351 4.88414642 -3.51502629 5.23819737 -7.203125 5.1953125 C-8.1828125 5.18886719 -9.1625 5.18242187 -10.171875 5.17578125 C-11.18765625 5.15902344 -12.2034375 5.14226562 -13.25 5.125 C-14.28125 5.11597656 -15.3125 5.10695312 -16.375 5.09765625 C-18.91690287 5.07412011 -21.4583328 5.04124023 -24 5 C-23.34 4.01 -22.68 3.02 -22 2 C-19.75341797 1.65942383 -19.75341797 1.65942383 -16.9921875 1.70703125 C-16.00605469 1.71669922 -15.01992188 1.72636719 -14.00390625 1.73632812 C-12.97136719 1.76146484 -11.93882812 1.78660156 -10.875 1.8125 C-9.31458984 1.83280273 -9.31458984 1.83280273 -7.72265625 1.85351562 C-5.14792373 1.88894772 -2.5742167 1.93834779 0 2 C0 1.34 0 0.68 0 0 Z " fill="#DDF6DF" transform="translate(280,224)"/>
<path d="M0 0 C3.95831809 -0.02892857 7.91660917 -0.04677427 11.875 -0.0625 C13.56689453 -0.07506836 13.56689453 -0.07506836 15.29296875 -0.08789062 C16.36933594 -0.09111328 17.44570312 -0.09433594 18.5546875 -0.09765625 C19.54968262 -0.10289307 20.54467773 -0.10812988 21.56982422 -0.11352539 C24 0 24 0 26 1 C27.2194696 6.03693964 27.16321305 10.9594101 26 16 C25.67 16 25.34 16 25 16 C25 11.71 25 7.42 25 3 C23.44667969 2.95101562 21.89335937 2.90203125 20.29296875 2.8515625 C18.25779433 2.77653303 16.22263896 2.70098528 14.1875 2.625 C12.65125977 2.57859375 12.65125977 2.57859375 11.08398438 2.53125 C10.10107422 2.49257812 9.11816406 2.45390625 8.10546875 2.4140625 C7.19949951 2.3826416 6.29353027 2.3512207 5.36010742 2.31884766 C3 2 3 2 0 0 Z " fill="#F3FCF4" transform="translate(121,176)"/>
<path d="M0 0 C0.66 0.33 1.32 0.66 2 1 C1.443125 1.61746094 0.88625 2.23492187 0.3125 2.87109375 C-10.02311497 14.27989041 -10.02311497 14.27989041 -20 26 C-20.33 25.01 -20.66 24.02 -21 23 C-19.6875 20.8125 -19.6875 20.8125 -18 19 C-17.34 19 -16.68 19 -16 19 C-15.5978125 18.13375 -15.5978125 18.13375 -15.1875 17.25 C-13.97070811 14.94449957 -12.69666121 12.97943808 -11 11 C-10.34 11 -9.68 11 -9 11 C-9 10.34 -9 9.68 -9 9 C-8.34 9 -7.68 9 -7 9 C-7 8.34 -7 7.68 -7 7 C-6.34 7 -5.68 7 -5 7 C-5 6.34 -5 5.68 -5 5 C-4.34 5 -3.68 5 -3 5 C-3 4.34 -3 3.68 -3 3 C-2.34 3 -1.68 3 -1 3 C-0.67 2.01 -0.34 1.02 0 0 Z " fill="#F1FCF2" transform="translate(133,205)"/>
<path d="M0 0 C-0.5409931 3.78695173 -2.03432464 5.62745972 -5 8 C-6.32 8 -7.64 8 -9 8 C-9 6.02 -9 4.04 -9 2 C-5.62902617 0.50178941 -3.79557881 0 0 0 Z " fill="#E0E3DE" transform="translate(89,173)"/>
<path d="M0 0 C0 4.29525524 -2.23382207 5.83865379 -5 9 C-5.99 10.485 -5.99 10.485 -7 12 C-7.66 12 -8.32 12 -9 12 C-9 12.66 -9 13.32 -9 14 C-9.66 14 -10.32 14 -11 14 C-11.2475 14.61875 -11.495 15.2375 -11.75 15.875 C-13.22047178 18.37480203 -14.41403076 18.83316022 -17 20 C-11.90413721 12.84580832 -6.21219581 6.21219581 0 0 Z " fill="#F5FDF5" transform="translate(101,214)"/>
<path d="M0 0 C0.99 0 1.98 0 3 0 C3 0.66 3 1.32 3 2 C5.64 2 8.28 2 11 2 C11 2.99 11 3.98 11 5 C10.01 5.495 10.01 5.495 9 6 C8.01 7.485 8.01 7.485 7 9 C6.67 8.01 6.34 7.02 6 6 C2.99152582 4.77479736 2.99152582 4.77479736 0 4 C0 2.68 0 1.36 0 0 Z " fill="#F3F4F2" transform="translate(317,184)"/>
<path d="M0 0 C7.26 0 14.52 0 22 0 C18.38215466 1.80892267 15.91814124 2.53610902 12 3.1875 C10.453125 3.45626953 10.453125 3.45626953 8.875 3.73046875 C6.16130569 3.98487759 4.49582242 4.05292509 2 3 C1.34 2.01 0.68 1.02 0 0 Z " fill="#DBF7DD" transform="translate(256,214)"/>
<path d="M0 0 C7.92 0 15.84 0 24 0 C23 2 23 2 21.23535156 2.63256836 C18.81548862 3.0303287 16.68187533 3.02010819 14.234375 2.87890625 C13.34492187 2.83056641 12.45546875 2.78222656 11.5390625 2.73242188 C10.61867188 2.67634766 9.69828125 2.62027344 8.75 2.5625 C7.81414062 2.51029297 6.87828125 2.45808594 5.9140625 2.40429688 C3.60901113 2.27493175 1.30442711 2.13997966 -1 2 C-0.67 1.34 -0.34 0.68 0 0 Z " fill="#E1F2E0" transform="translate(109,239)"/>
<path d="M0 0 C3.63 0 7.26 0 11 0 C11 3.38023517 10.12544378 5.83468937 9 9 C8.34 8.67 7.68 8.34 7 8 C7 6.02 7 4.04 7 2 C4.36 2 1.72 2 -1 2 C-0.67 1.34 -0.34 0.68 0 0 Z " fill="#C6E6C3" transform="translate(112,190)"/>
<path d="M0 0 C0.66 0 1.32 0 2 0 C0.48446596 3.47775179 -1.5773456 5.9557984 -4.125 8.75 C-5.21167969 9.94882813 -5.21167969 9.94882813 -6.3203125 11.171875 C-6.87460938 11.77515625 -7.42890625 12.3784375 -8 13 C-8.33 12.01 -8.66 11.02 -9 10 C-7.5484451 8.32742645 -6.08855591 6.66208242 -4.625 5 C-3.81289062 4.071875 -3.00078125 3.14375 -2.1640625 2.1875 C-1.44992188 1.465625 -0.73578125 0.74375 0 0 Z " fill="#F0FAF1" transform="translate(144,192)"/>
<path d="M0 0 C4.4008703 3.82180842 5.80805531 6.47371099 7 12 C6.01 12.66 5.02 13.32 4 14 C4 12.35 4 10.7 4 9 C3.34 9 2.68 9 2 9 C1.34 6.03 0.68 3.06 0 0 Z " fill="#FEFBF2" transform="translate(351,180)"/>
<path d="M0 0 C3.3 0 6.6 0 10 0 C10 1.65 10 3.3 10 5 C10.66 5 11.32 5 12 5 C11.67 5.66 11.34 6.32 11 7 C8 6 8 6 6.625 4.5625 C4.61423786 2.62907486 2.60947795 1.9168436 0 1 C0 0.67 0 0.34 0 0 Z " fill="#D0E1B2" transform="translate(288,175)"/>
<path d="M0 0 C0.66 0.33 1.32 0.66 2 1 C-2.18856344 3.96264243 -6.11231975 6.37077325 -11 8 C-13.2109375 7.0703125 -13.2109375 7.0703125 -15 6 C-14.41992188 5.81824219 -13.83984375 5.63648438 -13.2421875 5.44921875 C-9.50982132 4.24820983 -6.06770952 3.0344703 -2.5625 1.25 C-1.716875 0.8375 -0.87125 0.425 0 0 Z " fill="#DFF5E2" transform="translate(204,249)"/>
<path d="M0 0 C1.34567923 2.69135846 0.77224621 4.13876894 0.1875 7.0625 C0.01605469 7.96097656 -0.15539062 8.85945312 -0.33203125 9.78515625 C-0.55246094 10.51605469 -0.77289063 11.24695313 -1 12 C-1.99 12.495 -1.99 12.495 -3 13 C-3.08121924 11.39667209 -3.13929134 9.79215974 -3.1875 8.1875 C-3.22230469 7.29417969 -3.25710937 6.40085938 -3.29296875 5.48046875 C-2.95081002 2.58352485 -2.24606427 1.77444972 0 0 Z " fill="#D6F0D4" transform="translate(255,190)"/>
<path d="M0 0 C0 3.93169105 -1.39419615 5.16427228 -4 8 C-4.66 8 -5.32 8 -6 8 C-6.66 9.32 -7.32 10.64 -8 12 C-8.33 12 -8.66 12 -9 12 C-9 10.35 -9 8.7 -9 7 C-8.34 7 -7.68 7 -7 7 C-4.65130253 5.02709413 -3.99897713 3.99693138 -3 1 C-2.01 0.67 -1.02 0.34 0 0 Z " fill="#DBF4DA" transform="translate(121,216)"/>
<path d="M0 0 C2.475 0.99 2.475 0.99 5 2 C5 3.98 5 5.96 5 8 C4.71125 7.360625 4.4225 6.72125 4.125 6.0625 C3.17176549 3.84793921 3.17176549 3.84793921 1 3 C0.34 4.98 -0.32 6.96 -1 9 C-1.66 8.01 -2.32 7.02 -3 6 C-2.01 4.02 -1.02 2.04 0 0 Z " fill="#FDFCF4" transform="translate(340,201)"/>
<path d="M0 0 C1.66611905 -0.042721 3.33382885 -0.04063832 5 0 C6.58867866 1.58867866 6.20794039 3.24689516 6.25 5.4375 C6.27578125 6.24058594 6.3015625 7.04367188 6.328125 7.87109375 C6.16570312 8.92490234 6.16570312 8.92490234 6 10 C5.01 10.66 4.02 11.32 3 12 C3.03480469 11.30132812 3.06960937 10.60265625 3.10546875 9.8828125 C3.13253906 8.97273437 3.15960938 8.06265625 3.1875 7.125 C3.22230469 6.22007812 3.25710937 5.31515625 3.29296875 4.3828125 C3.14794922 3.20332031 3.14794922 3.20332031 3 2 C2.01 1.34 1.02 0.68 0 0 Z " fill="#DEEDE1" transform="translate(140,239)"/>
<path d="M0 0 C4.03174806 0.27489191 5.56894631 0.53491576 8.375 3.5625 C8.91125 4.366875 9.4475 5.17125 10 6 C8 5 6 4 4 3 C3.67 4.32 3.34 5.64 3 7 C0 2.25 0 2.25 0 0 Z " fill="#F9FBFA" transform="translate(277,163)"/>
<path d="M0 0 C-0.39803561 2.88575819 -0.79009069 3.82189513 -3.0625 5.75 C-3.701875 6.1625 -4.34125 6.575 -5 7 C-4.34 5.68 -3.68 4.36 -3 3 C-4.98 3.33 -6.96 3.66 -9 4 C-8.67 3.01 -8.34 2.02 -8 1 C-5.17884816 -0.07009208 -3.09455459 0 0 0 Z " fill="#E8ECE6" transform="translate(89,173)"/>
<path d="M0 0 C0.99 0.33 1.98 0.66 3 1 C2.04578192 2.14926266 1.08647955 3.29430541 0.125 4.4375 C-0.40867187 5.07558594 -0.94234375 5.71367187 -1.4921875 6.37109375 C-3 8 -3 8 -5 9 C-3.7508258 5.54074837 -2.32472205 2.85306797 0 0 Z " fill="#FAF6E7" transform="translate(429,188)"/>
<path d="M0 0 C0.99 0.495 0.99 0.495 2 1 C2.33 1.99 2.66 2.98 3 4 C6.3 4.33 9.6 4.66 13 5 C13 5.33 13 5.66 13 6 C11.02090602 6.02686553 9.04171029 6.04633375 7.0625 6.0625 C5.96035156 6.07410156 4.85820313 6.08570313 3.72265625 6.09765625 C1 6 1 6 0 5 C-0.04063832 3.33382885 -0.042721 1.66611905 0 0 Z " fill="#DDF2E0" transform="translate(81,246)"/>
<path d="M0 0 C1.32 0.66 2.64 1.32 4 2 C3.67 2.66 3.34 3.32 3 4 C1.68 4 0.36 4 -1 4 C-1 5.65 -1 7.3 -1 9 C-2.32 8.67 -3.64 8.34 -5 8 C-4.01 8 -3.02 8 -2 8 C-2.04125 7.236875 -2.0825 6.47375 -2.125 5.6875 C-2 3 -2 3 0 0 Z " fill="#E9F2E6" transform="translate(309,182)"/>
<path d="M0 0 C0 0.33 0 0.66 0 1 C-1.74635165 1.53293835 -3.49727652 2.05090663 -5.25 2.5625 C-6.22453125 2.85253906 -7.1990625 3.14257812 -8.203125 3.44140625 C-10.96243932 3.99249836 -12.3912824 3.93789609 -15 3 C-9.63999211 0.74315457 -5.8022175 -0.36263859 0 0 Z " fill="#D7F4D8" transform="translate(267,177)"/>
<path d="M0 0 C2.31 0.33 4.62 0.66 7 1 C7.33 2.32 7.66 3.64 8 5 C5.36 4.01 2.72 3.02 0 2 C0 1.34 0 0.68 0 0 Z " fill="#FEFBF4" transform="translate(395,177)"/>
<path d="M0 0 C0.33 0.99 0.66 1.98 1 3 C0.01 3 -0.98 3 -2 3 C-3.20628008 5.33214148 -4.1654738 7.49642139 -5 10 C-5.66 9.67 -6.32 9.34 -7 9 C-5.20578369 4.9630133 -3.79448125 2.35519526 0 0 Z " fill="#DBF3DC" transform="translate(111,228)"/>
<path d="M0 0 C4.455 0.99 4.455 0.99 9 2 C9 2.33 9 2.66 9 3 C3.06 3.495 3.06 3.495 -3 4 C-2.01 2.68 -1.02 1.36 0 0 Z " fill="#E9F9E8" transform="translate(90,175)"/>
<path d="M0 0 C5.78461538 3.44615385 5.78461538 3.44615385 6.875 6.25 C6.936875 7.11625 6.936875 7.11625 7 8 C6.34 8 5.68 8 5 8 C0 2.52380952 0 2.52380952 0 0 Z " fill="#E0F8E1" transform="translate(158,238)"/>
</svg>
